<?xml version="1.0" encoding="UTF-8" standalone="no"?>
<svg
   xmlns:dc="http://purl.org/dc/elements/1.1/"
   xmlns:cc="http://creativecommons.org/ns#"
   xmlns:rdf="http://www.w3.org/1999/02/22-rdf-syntax-ns#"
   xmlns:svg="http://www.w3.org/2000/svg"
   xmlns="http://www.w3.org/2000/svg"
   xmlns:sodipodi="http://sodipodi.sourceforge.net/DTD/sodipodi-0.dtd"
   xmlns:inkscape="http://www.inkscape.org/namespaces/inkscape"
   version="1.1"
   id="svg2"
   xml:space="preserve"
   width="2615.9458"
   height="1483.1313"
   viewBox="0 0 2615.9458 1483.1314"
   sodipodi:docname="dadscc.svg"
   inkscape:version="1.0.2-2 (e86c870879, 2021-01-15)"><metadata
     id="metadata8"><rdf:RDF><cc:Work
         rdf:about=""><dc:format>image/svg+xml</dc:format><dc:type
           rdf:resource="http://purl.org/dc/dcmitype/StillImage" /><dc:title /></cc:Work></rdf:RDF></metadata><defs
     id="defs6"><clipPath
       clipPathUnits="userSpaceOnUse"
       id="clipPath20"><path
         d="M 0,0 H 1920 V 1080 H 0 Z"
         id="path18" /></clipPath><clipPath
       clipPathUnits="userSpaceOnUse"
       id="clipPath76"><path
         d="m 1168.43,372.331 h 672.03 V -299.7 h -672.03 z"
         id="path74" /></clipPath><clipPath
       clipPathUnits="userSpaceOnUse"
       id="clipPath134"><path
         d="M 0,0 H 1920 V 1080 H 0 Z"
         id="path132" /></clipPath><clipPath
       clipPathUnits="userSpaceOnUse"
       id="clipPath228"><path
         d="M 0,1080 H 1920 V 0 H 0 Z"
         id="path226" /></clipPath><clipPath
       clipPathUnits="userSpaceOnUse"
       id="clipPath302"><path
         d="m 1098.93,748.236 h 135.75 V 590.778 h -135.75 z"
         id="path300" /></clipPath><clipPath
       clipPathUnits="userSpaceOnUse"
       id="clipPath352"><path
         d="m 1413.61,748.236 h 135.76 V 590.778 h -135.76 z"
         id="path350" /></clipPath><clipPath
       clipPathUnits="userSpaceOnUse"
       id="clipPath402"><path
         d="m 1256.27,748.236 h 135.75 V 590.778 h -135.75 z"
         id="path400" /></clipPath><clipPath
       clipPathUnits="userSpaceOnUse"
       id="clipPath456"><path
         d="m 1564.23,298.662 h 302.8 V 36.3154 h -302.8 z"
         id="path454" /></clipPath><clipPath
       clipPathUnits="userSpaceOnUse"
       id="clipPath472"><path
         d="m 1617.49,436.318 h 124.04 V 305.86 h -124.04 z"
         id="path470" /></clipPath><clipPath
       clipPathUnits="userSpaceOnUse"
       id="clipPath522"><path
         d="M 1240.29,271.98 H 1457.5 V 36.3154 h -217.21 z"
         id="path520" /></clipPath><clipPath
       clipPathUnits="userSpaceOnUse"
       id="clipPath592"><path
         d="M 937.808,199.119 H 1068.78 V 36.3154 H 937.808 Z"
         id="path590" /></clipPath><clipPath
       clipPathUnits="userSpaceOnUse"
       id="clipPath608"><path
         d="m 1055.96,223.864 h 55.28 v -89.967 h -55.28 z"
         id="path606" /></clipPath><clipPath
       clipPathUnits="userSpaceOnUse"
       id="clipPath134-6"><path
         d="M 0,0 H 1920 V 1080 H 0 Z"
         id="path132-1" /></clipPath></defs><sodipodi:namedview
     pagecolor="#ffffff"
     bordercolor="#666666"
     borderopacity="1"
     objecttolerance="10"
     gridtolerance="10"
     guidetolerance="10"
     inkscape:pageopacity="0"
     inkscape:pageshadow="2"
     inkscape:window-width="1920"
     inkscape:window-height="1001"
     id="namedview4"
     showgrid="false"
     inkscape:zoom="0.700782"
     inkscape:cx="1059.2393"
     inkscape:cy="161.36495"
     inkscape:window-x="-9"
     inkscape:window-y="1341"
     inkscape:window-maximized="1"
     inkscape:current-layer="g222"
     inkscape:document-rotation="0" /><g
     id="g10"
     inkscape:groupmode="layer"
     inkscape:label="6458608"
     transform="matrix(1.3333333,0,0,-1.3333333,24.149415,1440)"><path
       d="M 0,0 H 1920 V 1080 H 0 Z"
       style="fill:none;fill-opacity:1;fill-rule:nonzero;stroke:none"
       id="path12" /><g
       id="g14"><g
         id="g16"
         clip-path="url(#clipPath20)"><g
           id="g22"
           transform="translate(1699.2944,618.2303)" /><g
           id="g26"
           transform="translate(1699.2944,653.4827)" /><g
           id="g30"
           transform="translate(1699.2944,688.7349)" /><g
           id="g34"
           transform="translate(1699.2944,723.9867)" /><g
           id="g38"
           transform="translate(1699.2944,759.2391)" /><g
           id="g42"
           transform="translate(1699.2944,794.4914)" /><g
           id="g46"
           transform="translate(-261.0232,260.0843)" /><g
           id="g50"
           transform="translate(-261.0232,295.3366)" /><g
           id="g54"
           transform="translate(-261.0232,330.5888)" /><g
           id="g58"
           transform="translate(-261.0232,365.8407)" /><g
           id="g62"
           transform="translate(-261.0232,401.093)" /><g
           id="g66"
           transform="translate(-261.0232,436.3454)" /><g
           id="g70"><g
             id="g72" /><g
             id="g120"><g
               clip-path="url(#clipPath76)"
               opacity="0.5"
               id="g118"><g
                 transform="translate(1838.967,36.315)"
                 id="g80" /><g
                 transform="translate(1804.4944,36.315)"
                 id="g84" /><g
                 transform="translate(1770.0217,36.315)"
                 id="g88" /><g
                 transform="translate(1735.5491,36.315)"
                 id="g92" /><g
                 transform="translate(1701.0764,36.315)"
                 id="g96" /><g
                 transform="translate(1666.6038,36.315)"
                 id="g100" /><g
                 transform="translate(1632.131,36.315)"
                 id="g104" /><g
                 transform="translate(1597.6583,36.315)"
                 id="g108" /><g
                 transform="translate(1563.1857,36.315)"
                 id="g112" /><g
                 transform="translate(1528.713,36.315)"
                 id="g116" /></g></g></g></g></g><g
       id="g124"
       transform="translate(823.1976,1080)"><path
         d="M 0,0 V -72.866 Z"
         style="fill:#ffffff;fill-opacity:1;fill-rule:nonzero;stroke:none"
         id="path126" /></g><g
       id="g222"
       transform="translate(0,48)"><rect
         style="opacity:1;fill:#e8e3cf;stroke:#000000;stroke-width:0.99975;fill-opacity:1"
         id="rect1101"
         width="2731.2346"
         height="1583.9447"
         x="-420.51965"
         y="-1207.5182"
         transform="scale(1,-1)" /><path
         d="M 919.38218,836.68561 V 1223.589"
         style="fill:#ffffff;fill-opacity:1;fill-rule:nonzero;stroke:#000000;stroke-width:2.01249;stroke-linecap:butt;stroke-linejoin:miter;stroke-miterlimit:10;stroke-dasharray:none;stroke-opacity:1"
         id="path194-3" /><path
         d="M 717.76213,805.28057 V 1230.7123"
         style="fill:#ffffff;fill-opacity:1;fill-rule:nonzero;stroke:#000000;stroke-width:2.11031;stroke-linecap:butt;stroke-linejoin:miter;stroke-miterlimit:10;stroke-dasharray:none;stroke-opacity:1"
         id="path166-2" /><path
         d="M 516.22915,860.74348 V 1219.8208"
         style="fill:#d4d4d4;fill-opacity:1;stroke:#000000;stroke-width:1.93877;stroke-linecap:butt;stroke-linejoin:miter;stroke-miterlimit:10;stroke-dasharray:none;stroke-opacity:1"
         id="path138-1" /><g
         id="g224"
         clip-path="url(#clipPath228)"><g
           id="g230"
           transform="translate(144.43,994.3347)" /><g
           id="g234"
           transform="translate(120.0832,994.3224)" /><g
           id="g238"
           transform="translate(89.0615,957.4827)" /><g
           id="g242"
           transform="translate(1885.2448,1035.2771)" /><g
           id="g246"
           transform="translate(1828.6456,1035.2771)" /><g
           id="g250"
           transform="translate(1885.2448,978.6776)" /><g
           id="g254"
           transform="translate(1828.6456,978.6776)" /><g
           id="g258"
           transform="translate(857.7967,143.4397)" /><g
           id="g262"
           transform="translate(801.1975,143.4397)" /><g
           id="g266"
           transform="translate(857.7967,86.8403)" /><g
           id="g270"
           transform="translate(801.1975,86.8403)" /><g
           id="g274"
           transform="translate(1210.5253,794.4431)" /><g
           id="g278"
           transform="translate(1210.52,794.4421)" /><g
           id="g282"
           transform="translate(1234.6818,706.6093)" /><g
           id="g286"
           transform="translate(1210.5237,794.4414)" /><g
           id="g290"
           transform="translate(1234.4736,590.8008)" /><g
           id="g296"><g
             id="g298" /><g
             id="g310"><g
               clip-path="url(#clipPath302)"
               opacity="0.5"
               id="g308"><g
                 transform="translate(1234.6818,706.6093)"
                 id="g306" /></g></g></g><g
           id="g312"
           transform="translate(1175.6517,654.9628)" /><g
           id="g316"
           transform="translate(1151.8658,644.7873)" /><g
           id="g320"
           transform="translate(1126.0985,637.1702)" /><g
           id="g324"
           transform="translate(1525.2094,794.4431)" /><g
           id="g328"
           transform="translate(1525.2041,794.4421)" /><g
           id="g332"
           transform="translate(1549.3662,706.6093)" /><g
           id="g336"
           transform="translate(1525.2081,794.4414)" /><g
           id="g340"
           transform="translate(1549.158,590.8008)" /><g
           id="g346"><g
             id="g348" /><g
             id="g360"><g
               clip-path="url(#clipPath352)"
               opacity="0.5"
               id="g358"><g
                 transform="translate(1549.3662,706.6093)"
                 id="g356" /></g></g></g><g
           id="g362"
           transform="translate(1490.3361,654.9628)" /><g
           id="g366"
           transform="translate(1466.55,644.7873)" /><g
           id="g370"
           transform="translate(1440.783,637.1702)" /><g
           id="g374"
           transform="translate(1367.8673,794.4431)" /><g
           id="g378"
           transform="translate(1367.8621,794.4421)" /><g
           id="g382"
           transform="translate(1392.0239,706.6093)" /><g
           id="g386"
           transform="translate(1367.8657,794.4414)" /><g
           id="g390"
           transform="translate(1391.8156,590.8008)" /><g
           id="g396"><g
             id="g398" /><g
             id="g410"><g
               clip-path="url(#clipPath402)"
               opacity="0.5"
               id="g408"><g
                 transform="translate(1392.0239,706.6093)"
                 id="g406" /></g></g></g><g
           id="g412"
           transform="translate(1332.9937,654.9628)" /><g
           id="g416"
           transform="translate(1309.208,644.7873)" /><g
           id="g420"
           transform="translate(1283.4408,637.1702)" /><g
           id="g424"
           transform="translate(1146.1965,558.8601)" /><g
           id="g428"
           transform="translate(1519.0314,558.8601)" /><g
           id="g2993" /><g
           id="g434"
           transform="translate(1776.2758,293.3173)" /><g
           id="g438"
           transform="translate(1813.4683,148.8287)" /><g
           id="g442"
           transform="translate(1799.9705,146.766)" /><g
           id="g446"
           transform="translate(1852.7516,117.4735)" /><g
           id="g450"><g
             id="g452" /><g
             id="g464"><g
               clip-path="url(#clipPath456)"
               opacity="0.75"
               id="g462"><g
                 transform="translate(1852.7516,117.4735)"
                 id="g460" /></g></g></g><g
           id="g466"><g
             id="g468" /><g
             id="g488"><g
               clip-path="url(#clipPath472)"
               id="g486"><g
                 transform="translate(1632.8163,305.86)"
                 id="g476" /><g
                 transform="translate(1661.0309,305.86)"
                 id="g480" /><g
                 transform="translate(1724.3318,305.86)"
                 id="g484" /></g></g></g><g
           id="g490"
           transform="translate(1399.4688,309.0884)"><path
             d="m 0,0 v -237.56 c 0,-19.459 -15.78,-35.213 -35.204,-35.213 h -91.831 c -8.191,0 -15.737,2.804 -21.719,7.503 l -0.009,0.009 c -2.065,1.623 -3.943,3.467 -5.591,5.498 -1.938,2.379 -3.569,5.021 -4.826,7.851 -1.972,4.385 -3.06,9.237 -3.06,14.352 v 204.769 c -16.833,1.47 -30.029,15.567 -30.029,32.791 z"
             style="fill:#e0f7ff;fill-opacity:1;fill-rule:nonzero;stroke:#000000;stroke-width:2.25;stroke-miterlimit:4;stroke-dasharray:none;stroke-opacity:1"
             id="path492" /></g><g
           id="g494"
           transform="translate(1388.9722,136.7922)"><path
             d="m 0,0 v -65.267 c 0,-13.614 -11.094,-24.707 -24.707,-24.707 h -91.829 c -13.614,0 -24.707,11.093 -24.707,24.707 V 0 Z"
             style="fill:#523720;fill-opacity:1;fill-rule:nonzero;stroke:#000000;stroke-width:2.25;stroke-miterlimit:4;stroke-dasharray:none;stroke-opacity:1"
             id="path496" /></g><g
           id="g498"
           transform="translate(1457.4971,261.5289)"><path
             d="m 0,0 v -158.713 c 0,-13.197 -10.673,-23.903 -23.869,-23.903 h -34.159 v 25.543 h 23.418 c 5.243,0 9.517,4.231 9.517,9.483 v 136.458 c 0,5.218 -4.274,9.483 -9.517,9.483 h -23.418 v 25.518 h 34.159 c 9.44,0 17.598,-5.472 21.464,-13.417 C -0.867,7.299 0,3.747 0,0"
             style="fill:#e0f7ff;fill-opacity:1;fill-rule:nonzero;stroke:#000000;stroke-width:2.25;stroke-miterlimit:4;stroke-dasharray:none;stroke-opacity:1"
             id="path500" /></g><path
           d="m 1320.862,145.219 h -5.022 v 169.537 h 5.022 z"
           style="fill:#c5d4da;fill-opacity:1;fill-rule:nonzero;stroke:#000000;stroke-width:2.25;stroke-miterlimit:4;stroke-dasharray:none;stroke-opacity:1"
           id="path502" /><g
           id="g504"
           transform="translate(1327.2441,329.2516)"><path
             d="m 0,0 c 0,-4.912 -3.982,-8.894 -8.894,-8.894 -4.911,0 -8.893,3.982 -8.893,8.894 0,4.912 3.982,8.893 8.893,8.893 C -3.982,8.893 0,4.912 0,0"
             style="fill:#ce9539;fill-opacity:1;fill-rule:nonzero;stroke:#000000;stroke-width:2.25;stroke-miterlimit:4;stroke-dasharray:none;stroke-opacity:1"
             id="path506" /></g><g
           id="g508"
           transform="translate(1386.163,148.0282)"><path
             d="m 0,0 h -135.625 c -1.551,0 -2.809,-1.258 -2.809,-2.809 0,-1.551 1.258,-2.809 2.809,-2.809 H 0 c 1.552,0 2.809,1.258 2.809,2.809 C 2.809,-1.258 1.552,0 0,0"
             style="fill:#4e453a;fill-opacity:1;fill-rule:nonzero;stroke:#000000;stroke-width:2.25;stroke-miterlimit:4;stroke-dasharray:none;stroke-opacity:1"
             id="path510" /></g><g
           id="g512"
           transform="translate(1399.4585,309.0818)"><path
             d="m 0,0 h -162.216 c 0,11.14 9.03,20.17 20.17,20.17 H -20.17 C -9.03,20.17 0,11.14 0,0"
             style="fill:#ecab43;fill-opacity:1;fill-rule:nonzero;stroke:#000000;stroke-width:2.25;stroke-miterlimit:4;stroke-dasharray:none;stroke-opacity:1"
             id="path514" /></g><g
           id="g516"><g
             id="g518" /><g
             id="g530"><g
               clip-path="url(#clipPath522)"
               opacity="0.75"
               id="g528"><g
                 transform="translate(1457.4971,261.5289)"
                 id="g526" /></g></g></g><g
           id="g532"
           transform="translate(1111.2379,201.892)" /><g
           id="g536"
           transform="translate(1007.6349,246.3115)" /><g
           id="g542"
           transform="translate(1064.9962,44.8248)" /><g
           id="g546"
           transform="translate(1068.781,223.8636)" /><g
           id="g550"
           transform="translate(1046.9293,223.8726)" /><g
           id="g554"
           transform="translate(1003.3074,223.8726)" /><g
           id="g558"
           transform="translate(972.9679,139.5771)" /><g
           id="g562"
           transform="translate(954.1321,156.5248)" /><g
           id="g566"
           transform="translate(1068.781,41.9976)" /><g
           id="g570"
           transform="translate(1046.7639,42.0001)" /><g
           id="g574"
           transform="translate(1003.3074,126.2675)" /><g
           id="g578"
           transform="translate(973.1329,126.2635)" /><g
           id="g582"
           transform="translate(937.8118,223.8609)" /><g
           id="g586"><g
             id="g588" /><g
             id="g600"><g
               clip-path="url(#clipPath592)"
               opacity="0.5"
               id="g598"><g
                 transform="translate(1048.3601,126.2635)"
                 id="g596" /></g></g></g><g
           id="g602"><g
             id="g604" /><g
             id="g616"><g
               clip-path="url(#clipPath608)"
               opacity="0.5"
               id="g614"><g
                 transform="translate(1111.2379,201.892)"
                 id="g612" /></g></g></g></g><g
         id="g3165"
         transform="translate(-783.40725,104.64285)"><path
           d="m 2266.7068,723.07898 -9.591,-17.539 c -12.888,-23.474 -19.633,-49.783 -19.668,-76.554 v -109.572 h -82.338 v 109.734 c 0,26.587 6.606,52.767 19.309,76.138 l 9.637,17.793 z"
           style="fill:#ffd197;fill-opacity:1;fill-rule:nonzero;stroke:#000000;stroke-width:2.25;stroke-miterlimit:4;stroke-dasharray:none;stroke-opacity:1"
           id="path276" /><path
           d="m 2266.7015,723.07799 -2.613,-189.92 -26.64,-13.743 v 109.347 c 0,26.851 6.743,53.234 19.667,76.774 z"
           style="fill:#f5bc89;fill-opacity:1;fill-rule:nonzero;stroke:#000000;stroke-width:2.25;stroke-miterlimit:4;stroke-dasharray:none;stroke-opacity:1"
           id="path280" /><path
           d="m 2290.8633,635.24519 v -115.832 l -0.208,0.023 -26.563,13.722 1.712,124.173 0.903,65.748 9.972,-22.028 c 3.54,-7.844 6.433,-15.931 8.666,-24.18 3.644,-13.536 5.518,-27.523 5.518,-41.626"
           style="fill:#ffd197;fill-opacity:1;fill-rule:nonzero;stroke:#000000;stroke-width:2.25;stroke-miterlimit:4;stroke-dasharray:none;stroke-opacity:1"
           id="path284" /><path
           d="m 2266.7052,723.07729 h -82.649 l -1.386,16.284 h 82.676 z"
           style="fill:#f5bc89;fill-opacity:1;fill-rule:nonzero;stroke:#000000;stroke-width:2.25;stroke-miterlimit:4;stroke-dasharray:none;stroke-opacity:1"
           id="path288" /><path
           d="m 2290.6551,519.43669 -26.517,2.846 -26.69,-2.869 26.644,13.744 z"
           style="fill:#daa878;fill-opacity:1;fill-rule:nonzero;stroke:#000000;stroke-width:2.25;stroke-miterlimit:4;stroke-dasharray:none;stroke-opacity:1"
           id="path292" /><path
           d="m 2228.0365,625.28589 h -63.523 v 8.834 h 63.523 z"
           style="fill:#daa878;fill-opacity:1;fill-rule:nonzero;stroke:#000000;stroke-width:2.25;stroke-miterlimit:4;stroke-dasharray:none;stroke-opacity:1"
           id="path294" /><path
           d="m 2231.8332,583.59869 v -1.174 c 0,-19.638 -15.92,-35.558 -35.558,-35.558 v 0 c -19.638,0 -35.558,15.92 -35.558,35.558 v 1.174 c 0,19.638 15.92,35.558 35.558,35.558 v 0 c 19.638,0 35.558,-15.92 35.558,-35.558"
           style="fill:#e0f7ff;fill-opacity:1;fill-rule:nonzero;stroke:#000000;stroke-width:2.25;stroke-miterlimit:4;stroke-dasharray:none;stroke-opacity:1"
           id="path314" /><path
           d="m 2208.0473,573.42319 c -7.726,-9.494 -19.268,-12.906 -25.767,-7.617 0,0 13.079,1.8 13.995,17.197 0.915,15.397 14.003,17.209 14.003,17.209 6.5,-5.29 5.504,-17.285 -2.231,-26.789"
           style="fill:#523720;fill-opacity:1;fill-rule:nonzero;stroke:#000000;stroke-width:2.25;stroke-miterlimit:4;stroke-dasharray:none;stroke-opacity:1"
           id="path318" /><path
           d="m 2182.28,565.80609 c -6.51,5.298 -5.514,17.293 2.212,26.786 7.735,9.505 19.277,12.917 25.787,7.62 0,0 -13.089,-1.812 -14.004,-17.209 -0.915,-15.397 -13.995,-17.197 -13.995,-17.197"
           style="fill:#756352;fill-opacity:1;fill-rule:nonzero;stroke:#000000;stroke-width:2.25;stroke-miterlimit:4;stroke-dasharray:none;stroke-opacity:1"
           id="path322" /><path
           d="m 2581.3909,723.07899 -9.591,-17.539 c -12.888,-23.474 -19.633,-49.783 -19.667,-76.554 v -109.572 h -82.339 v 109.734 c 0,26.587 6.606,52.767 19.309,76.138 l 9.637,17.793 z"
           style="fill:#ecab43;fill-opacity:1;fill-rule:nonzero;stroke:#000000;stroke-width:2.25;stroke-miterlimit:4;stroke-dasharray:none;stroke-opacity:1"
           id="path326" /><path
           d="m 2581.3856,723.07799 -2.612,-189.92 -26.64,-13.743 v 109.347 c 0,26.851 6.742,53.234 19.667,76.774 z"
           style="fill:#ce9539;fill-opacity:1;fill-rule:nonzero;stroke:#000000;stroke-width:2.25;stroke-miterlimit:4;stroke-dasharray:none;stroke-opacity:1"
           id="path330" /><path
           d="m 2605.5477,635.24519 v -115.832 l -0.208,0.023 -26.563,13.722 1.712,124.173 0.902,65.748 9.973,-22.028 c 3.54,-7.844 6.433,-15.931 8.666,-24.18 3.644,-13.536 5.518,-27.523 5.518,-41.626"
           style="fill:#ecab43;fill-opacity:1;fill-rule:nonzero;stroke:#000000;stroke-width:2.25;stroke-miterlimit:4;stroke-dasharray:none;stroke-opacity:1"
           id="path334" /><path
           d="m 2581.3896,723.07729 h -82.65 l -1.385,16.284 h 82.676 z"
           style="fill:#ce9539;fill-opacity:1;fill-rule:nonzero;stroke:#000000;stroke-width:2.25;stroke-miterlimit:4;stroke-dasharray:none;stroke-opacity:1"
           id="path338" /><path
           d="m 2605.3395,519.43669 -26.517,2.846 -26.69,-2.869 26.644,13.744 z"
           style="fill:#d2863b;fill-opacity:1;fill-rule:nonzero;stroke:#000000;stroke-width:2.25;stroke-miterlimit:4;stroke-dasharray:none;stroke-opacity:1"
           id="path342" /><path
           d="m 2542.7205,625.28589 h -63.523 v 8.834 h 63.523 z"
           style="fill:#d2863b;fill-opacity:1;fill-rule:nonzero;stroke:#000000;stroke-width:2.25;stroke-miterlimit:4;stroke-dasharray:none;stroke-opacity:1"
           id="path344" /><path
           d="m 2546.5176,583.59869 v -1.174 c 0,-19.638 -15.92,-35.558 -35.559,-35.558 -19.638,0 -35.558,15.92 -35.558,35.558 v 1.174 c 0,19.638 15.92,35.558 35.558,35.558 19.639,0 35.559,-15.92 35.559,-35.558"
           style="fill:#e0f7ff;fill-opacity:1;fill-rule:nonzero;stroke:#000000;stroke-width:2.25;stroke-miterlimit:4;stroke-dasharray:none;stroke-opacity:1"
           id="path364" /><path
           d="m 2522.7315,573.42319 c -7.726,-9.494 -19.268,-12.906 -25.767,-7.617 0,0 13.08,1.8 13.995,17.197 0.915,15.397 14.004,17.209 14.004,17.209 6.499,-5.29 5.503,-17.285 -2.232,-26.789"
           style="fill:#523720;fill-opacity:1;fill-rule:nonzero;stroke:#000000;stroke-width:2.25;stroke-miterlimit:4;stroke-dasharray:none;stroke-opacity:1"
           id="path368" /><path
           d="m 2496.9645,565.80609 c -6.51,5.298 -5.514,17.293 2.212,26.786 7.735,9.505 19.277,12.917 25.787,7.62 0,0 -13.089,-1.812 -14.004,-17.209 -0.915,-15.397 -13.995,-17.197 -13.995,-17.197"
           style="fill:#756352;fill-opacity:1;fill-rule:nonzero;stroke:#000000;stroke-width:2.25;stroke-miterlimit:4;stroke-dasharray:none;stroke-opacity:1"
           id="path372" /><path
           d="m 2424.0488,723.07899 -9.591,-17.539 c -12.888,-23.474 -19.633,-49.783 -19.668,-76.554 v -109.572 h -82.338 v 109.734 c 0,26.587 6.606,52.767 19.309,76.138 l 9.637,17.793 z"
           style="fill:#756352;fill-opacity:1;fill-rule:nonzero;stroke:#000000;stroke-width:2.25;stroke-miterlimit:4;stroke-dasharray:none;stroke-opacity:1"
           id="path376" /><path
           d="m 2424.0436,723.07799 -2.613,-189.92 -26.64,-13.743 v 109.347 c 0,26.851 6.743,53.234 19.667,76.774 z"
           style="fill:#624933;fill-opacity:1;fill-rule:nonzero;stroke:#000000;stroke-width:2.25;stroke-miterlimit:4;stroke-dasharray:none;stroke-opacity:1"
           id="path380" /><path
           d="m 2448.2054,635.24519 v -115.832 l -0.208,0.023 -26.563,13.722 1.712,124.173 0.902,65.748 9.973,-22.028 c 3.54,-7.844 6.433,-15.931 8.665,-24.18 3.645,-13.536 5.519,-27.523 5.519,-41.626"
           style="fill:#756352;fill-opacity:1;fill-rule:nonzero;stroke:#000000;stroke-width:2.25;stroke-miterlimit:4;stroke-dasharray:none;stroke-opacity:1"
           id="path384" /><path
           d="m 2424.0472,723.07729 h -82.649 l -1.386,16.284 h 82.676 z"
           style="fill:#624933;fill-opacity:1;fill-rule:nonzero;stroke:#000000;stroke-width:2.25;stroke-miterlimit:4;stroke-dasharray:none;stroke-opacity:1"
           id="path388" /><path
           d="m 2447.9971,519.43669 -26.517,2.846 -26.69,-2.869 26.644,13.744 z"
           style="fill:#523720;fill-opacity:1;fill-rule:nonzero;stroke:#000000;stroke-width:2.25;stroke-miterlimit:4;stroke-dasharray:none;stroke-opacity:1"
           id="path392" /><path
           d="m 2385.3785,625.28589 h -63.523 v 8.834 h 63.523 z"
           style="fill:#523720;fill-opacity:1;fill-rule:nonzero;stroke:#000000;stroke-width:2.25;stroke-miterlimit:4;stroke-dasharray:none;stroke-opacity:1"
           id="path394" /><path
           d="m 2389.1752,583.59869 v -1.174 c 0,-19.638 -15.92,-35.558 -35.558,-35.558 -19.639,0 -35.559,15.92 -35.559,35.558 v 1.174 c 0,19.638 15.92,35.558 35.559,35.558 19.638,0 35.558,-15.92 35.558,-35.558"
           style="fill:#e0f7ff;fill-opacity:1;fill-rule:nonzero;stroke:#000000;stroke-width:2.25;stroke-miterlimit:4;stroke-dasharray:none;stroke-opacity:1"
           id="path414" /><path
           d="m 2365.3895,573.42319 c -7.726,-9.494 -19.268,-12.906 -25.767,-7.617 0,0 13.08,1.8 13.995,17.197 0.915,15.397 14.003,17.209 14.003,17.209 6.5,-5.29 5.504,-17.285 -2.231,-26.789"
           style="fill:#523720;fill-opacity:1;fill-rule:nonzero;stroke:#000000;stroke-width:2.25;stroke-miterlimit:4;stroke-dasharray:none;stroke-opacity:1"
           id="path418" /><path
           d="m 2339.6223,565.80609 c -6.51,5.298 -5.514,17.293 2.212,26.786 7.735,9.505 19.277,12.917 25.787,7.62 0,0 -13.089,-1.812 -14.004,-17.209 -0.915,-15.397 -13.995,-17.197 -13.995,-17.197"
           style="fill:#756352;fill-opacity:1;fill-rule:nonzero;stroke:#000000;stroke-width:2.25;stroke-miterlimit:4;stroke-dasharray:none;stroke-opacity:1"
           id="path422" /><path
           d="m 2202.378,487.49599 22.659,24.515 h -73.844 l 23.744,-24.515 z"
           style="fill:#b48154;fill-opacity:1;fill-rule:nonzero;stroke:#000000;stroke-width:2.25;stroke-miterlimit:4;stroke-dasharray:none;stroke-opacity:1"
           id="path426" /><path
           d="m 2575.2129,487.49599 22.659,24.515 h -73.845 l 23.745,-24.515 z"
           style="fill:#b48154;fill-opacity:1;fill-rule:nonzero;stroke:#000000;stroke-width:2.25;stroke-miterlimit:4;stroke-dasharray:none;stroke-opacity:1"
           id="path430" /><path
           d="m 2645.9825,507.86389 h -542.9 v 11.551 h 542.9 z"
           style="fill:#c8a27e;fill-opacity:1;fill-rule:nonzero;stroke:#000000;stroke-width:2.25;stroke-miterlimit:4;stroke-dasharray:none;stroke-opacity:1"
           id="path432" /></g><path
         d="m 1027.2016,293.97538 -6.025,-27.285 -1.317,-5.948 H 848.83363 c 0,0 -4.35,2.09 -9.814,5.923 -8.047,5.659 -18.499,15.108 -20.997,27.259 -0.569,2.77 1.47,5.396 4.3,5.396 h 200.58797 c 2.804,0 4.894,-2.6 4.291,-5.345"
         style="fill:#e0f7ff;fill-opacity:1;fill-rule:nonzero;stroke:#000000;stroke-width:2.25;stroke-miterlimit:4;stroke-dasharray:none;stroke-opacity:1"
         id="path436-0" /><path
         d="m 1064.3941,149.48681 c 0,-48.061 -26.121,-90.072006 -64.928,-112.513006 H 869.31213 c -9.567,5.531 -18.362,12.245 -26.18,19.96 l -1.81,1.81 c -8.956,9.177 -16.561,19.68 -22.501,31.185 -1.3,2.524 -2.532,5.09 -3.662,7.707002 -6.934,15.882004 -10.775,33.420004 -10.775,51.851004 0,36.997 15.423,70.358 40.21,93.998 1.385,1.325 2.795,2.617 4.24,3.874 h 171.11097 c 1.444,-1.257 2.855,-2.549 4.24,-3.874 24.786,-23.64 40.209,-57.001 40.209,-93.998"
         style="fill:#e0f7ff;fill-opacity:1;fill-rule:nonzero;stroke:#000000;stroke-width:2.25;stroke-miterlimit:4;stroke-dasharray:none;stroke-opacity:1"
         id="path440-8" /><path
         d="m 1050.8963,147.42409 c 0,-40.453 -21.268,-78.257006 -55.691,-99.335006 -0.608,-0.373 -1.315,-0.568 -2.029,-0.568 H 875.56933 c -0.714,0 -1.421,0.195 -2.03,0.569 -34.388,21.078 -55.656,58.881006 -55.656,99.334006 0,6.741 0.597,13.427 1.743,19.988 0.255,1.46 1.513,2.532 2.994,2.532 h 223.53797 c 1.482,0 2.74,-1.072 2.995,-2.532 1.146,-6.561 1.743,-13.247 1.743,-19.988"
         style="fill:#523720;fill-opacity:1;fill-rule:nonzero;stroke:#000000;stroke-width:2.25;stroke-miterlimit:4;stroke-dasharray:none;stroke-opacity:1"
         id="path444-8" /><path
         d="m 1103.6774,118.13156 c -1.878,-4.41 -6.169,-7.053 -10.681,-7.053 -1.513,0 -3.059,0.306 -4.546,0.935 -5.889,2.515 -8.633,9.33 -6.118,15.227 10.179,23.852 14.547,35.468 11.437,60.926 -3.238,26.605 -18.159,55.318 -36.589,55.318 H 839.68243 c -6.407,0 -11.599,5.192 -11.599,11.599 0,6.186 4.835,11.242 10.936,11.581 0.221,0.017 0.442,0.026 0.663,0.026 h 217.49797 c 33.08,0 55.037,-38.094 59.625,-75.72 3.807,-31.194 -2.192,-47.211 -13.128,-72.839"
         style="fill:#4e453a;fill-opacity:1;fill-rule:nonzero;stroke:#000000;stroke-width:2.25;stroke-miterlimit:4;stroke-dasharray:none;stroke-opacity:1"
         id="path448-3" /><path
         d="m 883.74218,306.51808 h -14.396 c -8.007,64.735 38.744,104.049 27.006,130.458 14.65195,-26.409 -27.761,-65.723 -12.61,-130.458"
         style="fill:#cccccc;fill-opacity:1;fill-rule:nonzero;stroke:none"
         id="path474-6" /><path
         d="m 911.95673,306.51808 h -14.396 c -14.901,64.735 27.664,104.049 13.114,130.458 17.464,-26.409 -20.762,-65.723 1.282,-130.458"
         style="fill:#cccccc;fill-opacity:1;fill-rule:nonzero;stroke:none"
         id="path478-1" /><path
         d="m 975.2576,306.51808 h 14.396 c 13.905,64.736 -29.265,104.049 -15.121,130.458 -17.05797,-26.409 21.774,-65.722 0.725,-130.458"
         style="fill:#cccccc;fill-opacity:1;fill-rule:nonzero;stroke:none"
         id="path482-5" /><path
         d="m 1759.7185,202.32065 v -24.316 c 0,-24.087 -19.6,-43.679 -43.688,-43.679 h -1.943 c -5.326,0 -9.649,4.315 -9.649,9.641 0,5.326 4.323,9.649 9.649,9.649 h 1.943 c 13.453,0 24.398,10.945 24.398,24.389 v 24.316 c 0,1.477 -1.204,2.681 -2.673,2.681 h -32.095 c -5.327,0 -9.65,4.314 -9.65,9.641 0,5.326 4.323,9.65 9.65,9.65 h 32.095 c 12.112,0 21.963,-9.851 21.963,-21.972"
         style="fill:#4e453a;fill-opacity:1;fill-rule:nonzero;stroke:#000000;stroke-width:2.25;stroke-miterlimit:4;stroke-dasharray:none;stroke-opacity:1"
         id="path534-3" /><path
         d="m 1656.1155,246.74012 h -8.672 c 0,0 -5.652,17.16 -5.652,21.923 0,4.994 19.976,4.994 19.976,0 0,-5.411 -5.652,-21.923 -5.652,-21.923"
         style="fill:#4e453a;fill-opacity:1;fill-rule:nonzero;stroke:#000000;stroke-width:2.25;stroke-miterlimit:4;stroke-dasharray:none;stroke-opacity:1"
         id="path538-2" /><path
         d="m 1692.4536,124.84066 h -81.347 v 17.019 h 81.347 z"
         style="fill:#a8bac1;fill-opacity:1;fill-rule:nonzero;stroke:#000000;stroke-width:2.25;stroke-miterlimit:4;stroke-dasharray:none;stroke-opacity:1"
         id="path540-2" /><path
         d="m 1713.4768,45.253463 -1.505,-2.827 -3.037,-5.682 h -114.31 l -3.037,5.682 -1.505,2.827 z"
         style="fill:#4e453a;fill-opacity:1;fill-rule:nonzero;stroke:#000000;stroke-width:1.5;stroke-miterlimit:4;stroke-dasharray:none;stroke-opacity:1"
         id="path544-0" /><path
         d="m 1717.2616,224.29227 -4.679,-19.29 -1.322,-5.454 -14.42,-59.54 h -14.739 l 0.292,1.851 5.399,34.221 7.616,48.212 v 0.009 h 21.835 z"
         style="fill:#b4c2c9;fill-opacity:1;fill-rule:nonzero;stroke:#000000;stroke-width:2.25;stroke-miterlimit:4;stroke-dasharray:none;stroke-opacity:1"
         id="path548-2" /><path
         d="m 1695.4099,224.30127 -13.31,-84.296 h -30.312 v 84.296 z"
         style="fill:#bbcad0;fill-opacity:1;fill-rule:nonzero;stroke:#000000;stroke-width:2.25;stroke-miterlimit:4;stroke-dasharray:none;stroke-opacity:1"
         id="path552-2" /><path
         d="m 1651.788,224.30127 v -84.296 h -30.339 l -13.31,84.296 z"
         style="fill:#c5d4da;fill-opacity:1;fill-rule:nonzero;stroke:#000000;stroke-width:2.25;stroke-miterlimit:4;stroke-dasharray:none;stroke-opacity:1"
         id="path556-5" /><path
         d="m 1621.4485,140.00577 h -14.743 l -4.106,16.948 -16.313,67.348 h 21.852 z"
         style="fill:#dae7ec;fill-opacity:1;fill-rule:nonzero;stroke:#000000;stroke-width:2.25;stroke-miterlimit:4;stroke-dasharray:none;stroke-opacity:1"
         id="path560-9" /><path
         d="m 1602.6127,156.95344 -47.866,67.348 h 31.553 z"
         style="fill:#c5d4da;fill-opacity:1;fill-rule:nonzero;stroke:#000000;stroke-width:2.25;stroke-miterlimit:4;stroke-dasharray:none;stroke-opacity:1"
         id="path564-4" /><path
         d="m 1717.2616,42.426263 h -22.017 l -0.447,2.827 -12.568,79.586997 -0.292,1.852 h 14.903 z"
         style="fill:#b4c2c9;fill-opacity:1;fill-rule:nonzero;stroke:#000000;stroke-width:2.25;stroke-miterlimit:4;stroke-dasharray:none;stroke-opacity:1"
         id="path568-3" /><path
         d="m 1695.2445,42.428743 h -43.457 v 84.266997 h 30.147 z"
         style="fill:#bbcad0;fill-opacity:1;fill-rule:nonzero;stroke:#000000;stroke-width:2.25;stroke-miterlimit:4;stroke-dasharray:none;stroke-opacity:1"
         id="path572-3" /><path
         d="M 1651.788,126.69619 V 42.429193 h -43.484 l 13.31,84.266997 z"
         style="fill:#c5d4da;fill-opacity:1;fill-rule:nonzero;stroke:#000000;stroke-width:2.25;stroke-miterlimit:4;stroke-dasharray:none;stroke-opacity:1"
         id="path576-1" /><path
         d="m 1621.6135,126.69214 -0.292,-1.852 -2.855,-18.095 -9.713,-61.491997 -0.447,-2.827 h -22.017 l 10.279,42.429 10.142,41.836997 z"
         style="fill:#dae7ec;fill-opacity:1;fill-rule:nonzero;stroke:#000000;stroke-width:2.25;stroke-miterlimit:4;stroke-dasharray:none;stroke-opacity:1"
         id="path580-5" /><path
         d="m 1586.2924,224.28957 h 130.974 l -59.666,22.818 c -3.748,1.433 -7.894,1.433 -11.642,0 z"
         style="fill:#d2dfe4;fill-opacity:1;fill-rule:nonzero;stroke:#000000;stroke-width:2.25;stroke-miterlimit:4;stroke-dasharray:none;stroke-opacity:1"
         id="path584-5" /><g
         id="g128"
         transform="matrix(1.4754682,0,0,1.4754682,-698.22878,-628.12693)"><g
           id="g130"
           clip-path="url(#clipPath134-6)"><g
             id="g136"
             transform="translate(823.1981,1007.1342)"><path
               d="M 0,0 V 243.365"
               style="fill:#d4d4d4;stroke:#000000;stroke-width:1.314;stroke-linecap:butt;stroke-linejoin:miter;stroke-miterlimit:10;stroke-dasharray:none;stroke-opacity:1;fill-opacity:1"
               id="path138" /></g><g
             id="g140"
             transform="translate(822.5273,1011.1985)"><path
               d="m 0,0 h 1.341 c 1.576,0 2.854,-1.277 2.854,-2.854 v -4.223 c 0,-0.581 -0.471,-1.052 -1.052,-1.052 h -4.945 c -0.581,0 -1.051,0.471 -1.051,1.052 v 4.223 C -2.853,-1.277 -1.576,0 0,0"
               style="fill:#756352;fill-opacity:1;fill-rule:nonzero;stroke:#000000;stroke-width:1.5;stroke-miterlimit:4;stroke-dasharray:none;stroke-opacity:1"
               id="path142" /></g><g
             id="g144"
             transform="translate(858.0179,944.1003)"><path
               d="m 0,0 c 0,-20.43 -17.708,-36.712 -38.587,-34.376 -15.806,1.768 -28.587,14.523 -30.382,30.326 -1.778,15.648 6.899,29.506 19.946,35.489 3.725,1.708 6.091,5.452 6.091,9.55 v 0.001 h 16.646 c 0,-4.098 2.365,-7.843 6.09,-9.551 C -8.283,25.979 0,13.956 0,0"
               style="fill:#ffffff;fill-opacity:1;fill-rule:nonzero;stroke:#000000;stroke-width:2.25;stroke-miterlimit:4;stroke-dasharray:none;stroke-opacity:1"
               id="path146" /></g><g
             id="g148"
             transform="translate(820.7154,1005.2721)"><path
               d="m 0,0 h 4.965 c 4.202,0 7.609,-3.407 7.609,-7.608 v -9.771 c 0,-1.548 -1.255,-2.803 -2.803,-2.803 H -4.805 c -1.548,0 -2.803,1.255 -2.803,2.803 v 9.771 C -7.608,-3.407 -4.202,0 0,0"
               style="fill:#523720;fill-opacity:1;fill-rule:nonzero;stroke:#000000;stroke-width:2.25;stroke-miterlimit:4;stroke-dasharray:none;stroke-opacity:1"
               id="path150" /></g><g
             id="g152"
             transform="translate(807.6962,935.3825)"><path
               d="m 0,0 v 0 c -0.521,0 -0.943,0.422 -0.943,0.943 v 13.491 c 0,0.521 0.422,0.943 0.943,0.943 0.521,0 0.943,-0.422 0.943,-0.943 V 0.943 C 0.943,0.422 0.521,0 0,0"
               style="fill:#d4d4d4;fill-opacity:1;fill-rule:nonzero;stroke:#000000;stroke-width:1.5;stroke-miterlimit:4;stroke-dasharray:none;stroke-opacity:1"
               id="path154" /></g><g
             id="g156"
             transform="translate(822.5037,935.3825)"><path
               d="m 0,0 v 0 c -0.521,0 -0.943,0.422 -0.943,0.943 v 13.491 c 0,0.521 0.422,0.943 0.943,0.943 0.521,0 0.943,-0.422 0.943,-0.943 V 0.943 C 0.943,0.422 0.521,0 0,0"
               style="fill:#d4d4d4;fill-opacity:1;fill-rule:nonzero;stroke:#000000;stroke-width:1.5;stroke-miterlimit:4;stroke-dasharray:none;stroke-opacity:1"
               id="path158" /></g><g
             id="g160"
             transform="translate(837.3112,935.3825)"><path
               d="m 0,0 v 0 c -0.521,0 -0.943,0.422 -0.943,0.943 v 13.491 c 0,0.521 0.422,0.943 0.943,0.943 0.521,0 0.943,-0.422 0.943,-0.943 V 0.943 C 0.943,0.422 0.521,0 0,0"
               style="fill:#d4d4d4;fill-opacity:1;fill-rule:nonzero;stroke:#000000;stroke-width:1.5;stroke-miterlimit:4;stroke-dasharray:none;stroke-opacity:1"
               id="path162" /></g><g
             id="g164"
             transform="translate(959.7801,1007.1342)"><path
               d="M 0,0 V 243.365"
               style="fill:#ffffff;fill-opacity:1;fill-rule:nonzero;stroke:#000000;stroke-width:1.314;stroke-linecap:butt;stroke-linejoin:miter;stroke-miterlimit:10;stroke-dasharray:none;stroke-opacity:1"
               id="path166" /></g><g
             id="g168"
             transform="translate(959.1093,1011.1985)"><path
               d="m 0,0 h 1.341 c 1.576,0 2.854,-1.277 2.854,-2.854 v -4.223 c 0,-0.581 -0.471,-1.052 -1.052,-1.052 h -4.945 c -0.581,0 -1.051,0.471 -1.051,1.052 v 4.223 C -2.853,-1.277 -1.576,0 0,0"
               style="fill:#756352;fill-opacity:1;fill-rule:nonzero;stroke:#000000;stroke-width:1.5;stroke-miterlimit:4;stroke-dasharray:none;stroke-opacity:1"
               id="path170" /></g><g
             id="g172"
             transform="translate(994.5999,944.1003)"><path
               d="m 0,0 c 0,-20.43 -17.708,-36.712 -38.587,-34.376 -15.806,1.768 -28.587,14.523 -30.382,30.326 -1.778,15.648 6.9,29.506 19.946,35.489 3.725,1.708 6.091,5.452 6.091,9.55 v 0.001 h 16.646 c 0,-4.098 2.365,-7.843 6.09,-9.551 C -8.283,25.979 0,13.956 0,0"
               style="fill:#ffffff;fill-opacity:1;fill-rule:nonzero;stroke:#000000;stroke-width:2.25;stroke-miterlimit:4;stroke-dasharray:none;stroke-opacity:1"
               id="path174" /></g><g
             id="g176"
             transform="translate(957.2974,1005.2721)"><path
               d="m 0,0 h 4.965 c 4.202,0 7.609,-3.407 7.609,-7.608 v -9.771 c 0,-1.548 -1.255,-2.803 -2.803,-2.803 H -4.805 c -1.548,0 -2.803,1.255 -2.803,2.803 v 9.771 C -7.608,-3.407 -4.202,0 0,0"
               style="fill:#523720;fill-opacity:1;fill-rule:nonzero;stroke:#000000;stroke-width:2.25;stroke-miterlimit:4;stroke-dasharray:none;stroke-opacity:1"
               id="path178" /></g><g
             id="g180"
             transform="translate(944.2782,935.3825)"><path
               d="m 0,0 v 0 c -0.521,0 -0.943,0.422 -0.943,0.943 v 13.491 c 0,0.521 0.422,0.943 0.943,0.943 0.521,0 0.943,-0.422 0.943,-0.943 V 0.943 C 0.943,0.422 0.521,0 0,0"
               style="fill:#d4d4d4;fill-opacity:1;fill-rule:nonzero;stroke:#000000;stroke-width:1.5;stroke-miterlimit:4;stroke-dasharray:none;stroke-opacity:1"
               id="path182" /></g><g
             id="g184"
             transform="translate(959.0857,935.3825)"><path
               d="m 0,0 v 0 c -0.521,0 -0.943,0.422 -0.943,0.943 v 13.491 c 0,0.521 0.422,0.943 0.943,0.943 0.521,0 0.943,-0.422 0.943,-0.943 V 0.943 C 0.943,0.422 0.521,0 0,0"
               style="fill:#d4d4d4;fill-opacity:1;fill-rule:nonzero;stroke:#000000;stroke-width:1.5;stroke-miterlimit:4;stroke-dasharray:none;stroke-opacity:1"
               id="path186" /></g><g
             id="g188"
             transform="translate(973.8932,935.3825)"><path
               d="m 0,0 v 0 c -0.521,0 -0.943,0.422 -0.943,0.943 v 13.491 c 0,0.521 0.422,0.943 0.943,0.943 0.521,0 0.943,-0.422 0.943,-0.943 V 0.943 C 0.943,0.422 0.521,0 0,0"
               style="fill:#d4d4d4;fill-opacity:1;fill-rule:nonzero;stroke:#000000;stroke-width:1.5;stroke-miterlimit:4;stroke-dasharray:none;stroke-opacity:1"
               id="path190" /></g><g
             id="g192"
             transform="translate(1096.3621,1007.1342)"><path
               d="M 0,0 V 243.365"
               style="fill:#ffffff;fill-opacity:1;fill-rule:nonzero;stroke:#000000;stroke-width:1.314;stroke-linecap:butt;stroke-linejoin:miter;stroke-miterlimit:10;stroke-dasharray:none;stroke-opacity:1"
               id="path194" /></g><g
             id="g196"
             transform="translate(1095.6913,1011.1985)"><path
               d="m 0,0 h 1.341 c 1.576,0 2.854,-1.277 2.854,-2.854 v -4.223 c 0,-0.581 -0.471,-1.052 -1.052,-1.052 h -4.945 c -0.58,0 -1.051,0.471 -1.051,1.052 v 4.223 C -2.853,-1.277 -1.576,0 0,0"
               style="fill:#756352;fill-opacity:1;fill-rule:nonzero;stroke:#000000;stroke-width:1.5;stroke-miterlimit:4;stroke-dasharray:none;stroke-opacity:1"
               id="path198" /></g><g
             id="g200"
             transform="translate(1131.1819,944.1003)"><path
               d="m 0,0 c 0,-20.43 -17.708,-36.712 -38.587,-34.376 -15.806,1.768 -28.587,14.523 -30.382,30.326 -1.778,15.648 6.9,29.506 19.946,35.489 3.725,1.708 6.091,5.452 6.091,9.55 v 0.001 h 16.646 c 0,-4.098 2.365,-7.843 6.09,-9.551 C -8.283,25.979 0,13.956 0,0"
               style="fill:#ffffff;fill-opacity:1;fill-rule:nonzero;stroke:#000000;stroke-width:2.25;stroke-miterlimit:4;stroke-dasharray:none;stroke-opacity:1"
               id="path202" /></g><g
             id="g204"
             transform="translate(1093.8793,1005.2721)"><path
               d="m 0,0 h 4.965 c 4.202,0 7.609,-3.407 7.609,-7.608 v -9.771 c 0,-1.548 -1.255,-2.803 -2.803,-2.803 H -4.805 c -1.548,0 -2.803,1.255 -2.803,2.803 v 9.771 C -7.608,-3.407 -4.202,0 0,0"
               style="fill:#523720;fill-opacity:1;fill-rule:nonzero;stroke:#000000;stroke-width:2.25;stroke-miterlimit:4;stroke-dasharray:none;stroke-opacity:1"
               id="path206" /></g><g
             id="g208"
             transform="translate(1080.8602,935.3825)"><path
               d="m 0,0 v 0 c -0.521,0 -0.943,0.422 -0.943,0.943 v 13.491 c 0,0.521 0.422,0.943 0.943,0.943 0.521,0 0.943,-0.422 0.943,-0.943 V 0.943 C 0.943,0.422 0.521,0 0,0"
               style="fill:#d4d4d4;fill-opacity:1;fill-rule:nonzero;stroke:#000000;stroke-width:1.5;stroke-miterlimit:4;stroke-dasharray:none;stroke-opacity:1"
               id="path210" /></g><g
             id="g212"
             transform="translate(1095.6677,935.3825)"><path
               d="m 0,0 v 0 c -0.521,0 -0.943,0.422 -0.943,0.943 v 13.491 c 0,0.521 0.422,0.943 0.943,0.943 0.521,0 0.943,-0.422 0.943,-0.943 V 0.943 C 0.943,0.422 0.521,0 0,0"
               style="fill:#d4d4d4;fill-opacity:1;fill-rule:nonzero;stroke:#000000;stroke-width:1.5;stroke-miterlimit:4;stroke-dasharray:none;stroke-opacity:1"
               id="path214" /></g><g
             id="g216"
             transform="translate(1110.4752,935.3825)"><path
               d="m 0,0 v 0 c -0.521,0 -0.943,0.422 -0.943,0.943 v 13.491 c 0,0.521 0.422,0.943 0.943,0.943 0.521,0 0.943,-0.422 0.943,-0.943 V 0.943 C 0.943,0.422 0.521,0 0,0"
               style="fill:#d4d4d4;fill-opacity:1;fill-rule:nonzero;stroke:#000000;stroke-width:1.5;stroke-miterlimit:4;stroke-dasharray:none;stroke-opacity:1"
               id="path218" /></g></g></g></g><path
       d="m 341.44051,-31.223495 81.79234,88.491943 H 156.67769 l 85.70887,-88.491943 z"
       style="fill:#b48154;fill-opacity:1;fill-rule:nonzero;stroke:#000000;stroke-width:2.25;stroke-miterlimit:4;stroke-dasharray:none;stroke-opacity:1"
       id="path426-9" /><path
       d="m 1687.2651,-31.223495 81.7923,88.491943 h -266.5588 l 85.7124,-88.491943 z"
       style="fill:#b48154;fill-opacity:1;fill-rule:nonzero;stroke:#000000;stroke-width:2.25;stroke-miterlimit:4;stroke-dasharray:none;stroke-opacity:1"
       id="path430-1" /><path
       d="M 1942.7223,42.298747 H -16.987062 V 83.994461 H 1942.7223 Z"
       style="fill:#c8a27e;fill-opacity:1;fill-rule:nonzero;stroke:#000000;stroke-width:2.25;stroke-miterlimit:4;stroke-dasharray:none;stroke-opacity:1"
       id="path432-3" /></g></svg>
