<?xml version="1.0" encoding="UTF-8"?>
<svg width="989.69" height="477.19" version="1.1" viewBox="0 0 989.68825 477.19266" xmlns="http://www.w3.org/2000/svg">
 <g transform="translate(-30.714 -328.76)">
  <g fill-rule="evenodd">
   <rect x="30.714" y="328.76" width="989.67" height="409.51" ry="1.2054" fill="#a2d2df"/>
   <rect x="836.41" y="488.7" width="37.628" height="20.456" fill="#fff"/>
   <rect x="31.101" y="696.57" width="988.74" height="99.864" ry="1.9904" fill="#e6e6e6"/>
   <path d="m622.64 699.59h299.95c0.0442 0-8.1418 0.0568-8.104 0.0798l15.276 9.285s-1.3996 0.0798-1.4438 0.0798h-305.68c-0.0442 0 8.1332-0.0466 8.104-0.0798l-8.1838-9.285c-0.0292-0.0332 0.0356-0.0798 0.0798-0.0798z" fill="#4caf50"/>
   <rect x="837.42" y="508.14" width="95.964" height="175.11" ry="0" fill="#fff"/>
   <rect x="94.823" y="456.79" width="742.98" height="226.85" ry="1.4372" fill="#fff"/>
   <rect x="86.236" y="456.76" width="29.841" height="241.02" ry="0" fill="#cccdd2"/>
   <rect x="94.823" y="680.78" width="856.12" height="16.999" ry=".1077" fill="#b3b3b3"/>
   <rect x="94.823" y="687.1" width="856.12" height="10.685" ry=".067694" fill="#808080"/>
   <rect x="31.082" y="554.34" width="45.397" height="143.44" ry="0" fill="#fff"/>
   <rect x="86.236" y="456.76" width="27.013" height="241.02" ry="0" fill="#4d4d4d"/>
   <rect x="138.99" y="523.03" width="45.479" height="28.047" ry="0" fill="#cccdd2"/>
   <rect x="138.99" y="634.55" width="45.479" height="28.047" ry="0" fill="#cccdd2"/>
   <rect x="138.99" y="582.34" width="45.479" height="28.047" ry="0" fill="#cccdd2"/>
   <rect x="144.36" y="523.03" width="34.652" height="28.047" ry="0" fill="#616b6d"/>
   <rect x="144.14" y="526.35" width="35.173" height="1.0625" ry="0" fill="#ccc"/>
   <rect x="154.92" y="523.03" width="1.0505" height="28.047" ry="0" fill="#ccc"/>
   <rect x="166.8" y="523.03" width="1.0505" height="28.047" ry="0" fill="#ccc"/>
   <rect x="144.36" y="582.52" width="34.652" height="28.047" ry="0" fill="#616b6d"/>
   <rect x="144.14" y="585.85" width="35.173" height="1.0625" ry="0" fill="#ccc"/>
   <rect x="154.92" y="582.52" width="1.0505" height="28.047" ry="0" fill="#ccc"/>
   <rect x="166.8" y="582.52" width="1.0505" height="28.047" ry="0" fill="#ccc"/>
   <rect x="144.36" y="634.66" width="34.652" height="28.047" ry="0" fill="#616b6d"/>
   <rect x="144.14" y="637.99" width="35.173" height="1.0625" ry="0" fill="#ccc"/>
   <rect x="154.92" y="634.66" width="1.0505" height="28.047" ry="0" fill="#ccc"/>
   <rect x="166.8" y="634.66" width="1.0505" height="28.047" ry="0" fill="#ccc"/>
   <rect x="228.33" y="523.03" width="45.479" height="28.047" ry="0" fill="#cccdd2"/>
   <rect x="228.33" y="634.55" width="45.479" height="28.047" ry="0" fill="#cccdd2"/>
   <rect x="228.33" y="582.34" width="45.479" height="28.047" ry="0" fill="#cccdd2"/>
   <rect x="233.7" y="523.03" width="34.652" height="28.047" ry="0" fill="#616b6d"/>
   <rect x="233.47" y="526.35" width="35.173" height="1.0625" ry="0" fill="#ccc"/>
   <rect x="244.26" y="523.03" width="1.0505" height="28.047" ry="0" fill="#ccc"/>
   <rect x="256.13" y="523.03" width="1.0505" height="28.047" ry="0" fill="#ccc"/>
   <rect x="233.7" y="582.52" width="34.652" height="28.047" ry="0" fill="#616b6d"/>
   <rect x="233.47" y="585.85" width="35.173" height="1.0625" ry="0" fill="#ccc"/>
   <rect x="244.26" y="582.52" width="1.0505" height="28.047" ry="0" fill="#ccc"/>
   <rect x="256.13" y="582.52" width="1.0505" height="28.047" ry="0" fill="#ccc"/>
   <rect x="233.7" y="634.66" width="34.652" height="28.047" ry="0" fill="#616b6d"/>
   <rect x="233.47" y="637.99" width="35.173" height="1.0625" ry="0" fill="#ccc"/>
   <rect x="244.26" y="634.66" width="1.0505" height="28.047" ry="0" fill="#ccc"/>
   <rect x="256.13" y="634.66" width="1.0505" height="28.047" ry="0" fill="#ccc"/>
   <rect x="318.47" y="523.03" width="45.479" height="28.047" ry="0" fill="#cccdd2"/>
   <rect x="318.47" y="634.55" width="45.479" height="28.047" ry="0" fill="#cccdd2"/>
   <rect x="318.47" y="582.34" width="45.479" height="28.047" ry="0" fill="#cccdd2"/>
   <rect x="323.84" y="523.03" width="34.652" height="28.047" ry="0" fill="#616b6d"/>
   <rect x="323.62" y="526.35" width="35.173" height="1.0625" ry="0" fill="#ccc"/>
   <rect x="334.4" y="523.03" width="1.0505" height="28.047" ry="0" fill="#ccc"/>
   <rect x="346.28" y="523.03" width="1.0505" height="28.047" ry="0" fill="#ccc"/>
   <rect x="323.84" y="582.52" width="34.652" height="28.047" ry="0" fill="#616b6d"/>
   <rect x="323.62" y="585.85" width="35.173" height="1.0625" ry="0" fill="#ccc"/>
   <rect x="334.4" y="582.52" width="1.0505" height="28.047" ry="0" fill="#ccc"/>
   <rect x="346.28" y="582.52" width="1.0505" height="28.047" ry="0" fill="#ccc"/>
   <rect x="323.84" y="634.66" width="34.652" height="28.047" ry="0" fill="#616b6d"/>
   <rect x="323.62" y="637.99" width="35.173" height="1.0625" ry="0" fill="#ccc"/>
   <rect x="334.4" y="634.66" width="1.0505" height="28.047" ry="0" fill="#ccc"/>
   <rect x="346.28" y="634.66" width="1.0505" height="28.047" ry="0" fill="#ccc"/>
   <rect x="408.62" y="523.03" width="45.479" height="28.047" ry="0" fill="#cccdd2"/>
   <rect x="408.62" y="634.55" width="45.479" height="28.047" ry="0" fill="#cccdd2"/>
   <rect x="408.62" y="582.34" width="45.479" height="28.047" ry="0" fill="#cccdd2"/>
   <rect x="413.99" y="523.03" width="34.652" height="28.047" ry="0" fill="#616b6d"/>
   <rect x="413.76" y="526.35" width="35.173" height="1.0625" ry="0" fill="#ccc"/>
   <rect x="424.55" y="523.03" width="1.0505" height="28.047" ry="0" fill="#ccc"/>
   <rect x="436.42" y="523.03" width="1.0505" height="28.047" ry="0" fill="#ccc"/>
   <rect x="413.99" y="582.52" width="34.652" height="28.047" ry="0" fill="#616b6d"/>
   <rect x="413.76" y="585.85" width="35.173" height="1.0625" ry="0" fill="#ccc"/>
   <rect x="424.55" y="582.52" width="1.0505" height="28.047" ry="0" fill="#ccc"/>
   <rect x="436.42" y="582.52" width="1.0505" height="28.047" ry="0" fill="#ccc"/>
   <rect x="413.99" y="634.66" width="34.652" height="28.047" ry="0" fill="#616b6d"/>
   <rect x="413.76" y="637.99" width="35.173" height="1.0625" ry="0" fill="#ccc"/>
   <rect x="424.55" y="634.66" width="1.0505" height="28.047" ry="0" fill="#ccc"/>
   <rect x="436.42" y="634.66" width="1.0505" height="28.047" ry="0" fill="#ccc"/>
   <rect x="600.81" y="523.03" width="43.127" height="28.047" ry="0" fill="#cccdd2"/>
   <rect x="600.81" y="634.55" width="43.127" height="28.047" ry="0" fill="#cccdd2"/>
   <rect x="600.81" y="582.34" width="43.127" height="28.047" ry="0" fill="#cccdd2"/>
   <rect x="605.9" y="523.03" width="32.86" height="28.047" ry="0" fill="#616b6d"/>
   <rect x="605.69" y="526.35" width="33.354" height="1.0625" ry="0" fill="#ccc"/>
   <rect x="615.91" y="523.03" width=".99616" height="28.047" ry="0" fill="#ccc"/>
   <rect x="627.18" y="523.03" width=".99616" height="28.047" ry="0" fill="#ccc"/>
   <rect x="605.9" y="582.52" width="32.86" height="28.047" ry="0" fill="#616b6d"/>
   <rect x="605.69" y="585.85" width="33.354" height="1.0625" ry="0" fill="#ccc"/>
   <rect x="615.91" y="582.52" width=".99616" height="28.047" ry="0" fill="#ccc"/>
   <rect x="627.18" y="582.52" width=".99616" height="28.047" ry="0" fill="#ccc"/>
   <rect x="605.9" y="634.66" width="32.86" height="28.047" ry="0" fill="#616b6d"/>
   <rect x="605.69" y="637.99" width="33.354" height="1.0625" ry="0" fill="#ccc"/>
   <rect x="615.91" y="634.66" width=".99616" height="28.047" ry="0" fill="#ccc"/>
   <rect x="627.18" y="634.66" width=".99616" height="28.047" ry="0" fill="#ccc"/>
   <rect x="685.52" y="523.03" width="43.127" height="28.047" ry="0" fill="#cccdd2"/>
   <rect x="685.52" y="634.55" width="43.127" height="28.047" ry="0" fill="#cccdd2"/>
   <rect x="685.52" y="582.34" width="43.127" height="28.047" ry="0" fill="#cccdd2"/>
   <rect x="690.62" y="523.03" width="32.86" height="28.047" ry="0" fill="#616b6d"/>
   <rect x="690.4" y="526.35" width="33.354" height="1.0625" ry="0" fill="#ccc"/>
   <rect x="700.63" y="523.03" width=".99616" height="28.047" ry="0" fill="#ccc"/>
   <rect x="711.89" y="523.03" width=".99616" height="28.047" ry="0" fill="#ccc"/>
   <rect x="690.62" y="582.52" width="32.86" height="28.047" ry="0" fill="#616b6d"/>
   <rect x="690.4" y="585.85" width="33.354" height="1.0625" ry="0" fill="#ccc"/>
   <rect x="700.63" y="582.52" width=".99616" height="28.047" ry="0" fill="#ccc"/>
   <rect x="711.89" y="582.52" width=".99616" height="28.047" ry="0" fill="#ccc"/>
   <rect x="690.62" y="634.66" width="32.86" height="28.047" ry="0" fill="#616b6d"/>
   <rect x="690.4" y="637.99" width="33.354" height="1.0625" ry="0" fill="#ccc"/>
   <rect x="700.63" y="634.66" width=".99616" height="28.047" ry="0" fill="#ccc"/>
   <rect x="711.89" y="634.66" width=".99616" height="28.047" ry="0" fill="#ccc"/>
   <rect x="770.23" y="523.03" width="43.127" height="28.047" ry="0" fill="#cccdd2"/>
   <rect x="770.23" y="634.55" width="43.127" height="28.047" ry="0" fill="#cccdd2"/>
   <rect x="770.23" y="582.34" width="43.127" height="28.047" ry="0" fill="#cccdd2"/>
   <rect x="775.33" y="523.03" width="32.86" height="28.047" ry="0" fill="#616b6d"/>
   <rect x="775.11" y="526.35" width="33.354" height="1.0625" ry="0" fill="#ccc"/>
   <rect x="785.34" y="523.03" width=".99616" height="28.047" ry="0" fill="#ccc"/>
   <rect x="796.6" y="523.03" width=".99616" height="28.047" ry="0" fill="#ccc"/>
   <rect x="775.33" y="582.52" width="32.86" height="28.047" ry="0" fill="#616b6d"/>
   <rect x="775.11" y="585.85" width="33.354" height="1.0625" ry="0" fill="#ccc"/>
   <rect x="785.34" y="582.52" width=".99616" height="28.047" ry="0" fill="#ccc"/>
   <rect x="796.6" y="582.52" width=".99616" height="28.047" ry="0" fill="#ccc"/>
   <rect x="775.33" y="634.66" width="32.86" height="28.047" ry="0" fill="#616b6d"/>
   <rect x="775.11" y="637.99" width="33.354" height="1.0625" ry="0" fill="#ccc"/>
   <rect x="785.34" y="634.66" width=".99616" height="28.047" ry="0" fill="#ccc"/>
   <rect x="796.6" y="634.66" width=".99616" height="28.047" ry="0" fill="#ccc"/>
   <rect x="855.72" y="523.03" width="43.127" height="28.047" ry="0" fill="#cccdd2"/>
   <rect x="855.72" y="634.55" width="43.127" height="28.047" ry="0" fill="#cccdd2"/>
   <rect x="855.72" y="582.34" width="43.127" height="28.047" ry="0" fill="#cccdd2"/>
   <rect x="860.81" y="523.03" width="32.86" height="28.047" ry="0" fill="#616b6d"/>
   <rect x="860.59" y="526.35" width="33.354" height="1.0625" ry="0" fill="#ccc"/>
   <rect x="870.82" y="523.03" width=".99616" height="28.047" ry="0" fill="#ccc"/>
   <rect x="882.09" y="523.03" width=".99616" height="28.047" ry="0" fill="#ccc"/>
   <path d="m837.64 471.03 96.291 50.075-0.17857 34.286-96.25-50.179-9.4008-17.389z" fill="#fff"/>
   <rect x="860.81" y="582.52" width="32.86" height="28.047" ry="0" fill="#616b6d"/>
   <rect x="860.59" y="585.85" width="33.354" height="1.0625" ry="0" fill="#ccc"/>
   <rect x="870.82" y="582.52" width=".99616" height="28.047" ry="0" fill="#ccc"/>
   <rect x="882.09" y="582.52" width=".99616" height="28.047" ry="0" fill="#ccc"/>
   <rect x="860.81" y="634.66" width="32.86" height="28.047" ry="0" fill="#616b6d"/>
   <rect x="860.59" y="637.99" width="33.354" height="1.0625" ry="0" fill="#ccc"/>
   <rect x="870.82" y="634.66" width=".99616" height="28.047" ry="0" fill="#ccc"/>
   <rect x="882.09" y="634.66" width=".99616" height="28.047" ry="0" fill="#ccc"/>
   <rect x="116" y="669.02" width="351" height="5" fill="#ccc"/>
   <rect x="31.05" y="791.53" width="988.24" height="14.423" ry="0" fill="#b0afb5"/>
   <g transform="matrix(.93492 0 0 .93492 65.44 42.073)" fill="#fff">
    <ellipse cx="93.571" cy="355.93" rx="19.286" ry="17.857"/>
    <ellipse cx="112.14" cy="370.93" rx="15" ry="12.857"/>
    <circle cx="120" cy="355.22" r="17.143"/>
    <ellipse cx="132.86" cy="368.08" rx="17.143" ry="14.286"/>
    <ellipse cx="93.929" cy="372.72" rx="8.2143" ry="7.5"/>
    <ellipse cx="88.929" cy="371.29" rx="13.929" ry="9.6429"/>
   </g>
   <g transform="matrix(.93492 0 0 .93492 65.44 42.073)" fill="#f2f2f2">
    <circle cx="395.98" cy="332.12" r="13.132"/>
    <ellipse cx="413.15" cy="334.14" rx="12.122" ry="11.112"/>
    <ellipse cx="383.86" cy="344.75" rx="20.203" ry="11.617"/>
    <ellipse cx="407.09" cy="345.76" rx="13.132" ry="10.607"/>
    <ellipse cx="433.36" cy="345.76" rx="19.193" ry="6.566"/>
    <ellipse cx="424.77" cy="338.69" rx="14.647" ry="8.5863"/>
   </g>
   <g transform="matrix(.93492 0 0 .93492 65.44 42.073)" fill="#fff">
    <ellipse cx="768.57" cy="358.79" rx="12.857" ry="7.8571"/>
    <ellipse cx="780.71" cy="368.79" rx="12.143" ry="10.714"/>
    <ellipse cx="801.43" cy="365.22" rx="17.143" ry="11.429"/>
    <ellipse cx="821.43" cy="359.51" rx="15.714" ry="12.857"/>
    <ellipse cx="832.86" cy="366.65" rx="22.857" ry="12.857"/>
    <ellipse cx="801.43" cy="357.36" rx="27.143" ry="15"/>
    <ellipse cx="828.57" cy="355.93" rx="17.143" ry="10.714"/>
    <ellipse cx="818.21" cy="372.36" rx="13.929" ry="7.8571"/>
   </g>
   <path d="m837.64 463.74 96.291 50.075-0.17857 34.286-96.25-50.179-9.4008-17.389z" fill="#ccc"/>
   <path d="m837.64 456.75 96.291 50.075-0.17857 34.286-96.25-50.179-9.4008-17.389z" fill="#4d4d4d"/>
   <rect x="477.8" y="553.99" width="93.944" height="138.24" ry="0" fill="#a1d1de"/>
   <rect x="562.45" y="554.18" width="19.436" height="143.44" ry="0" fill="#4d4d4d"/>
   <rect x="468.5" y="545.18" width="113.38" height="16.661" ry="0" fill="#4d4d4d"/>
   <g transform="translate(0 30.948)">
    <rect x="468.16" y="523.23" width="19.436" height="143.44" ry="0" fill="#4d4d4d"/>
    <rect x="473.16" y="539.57" width="10.865" height="116.39" ry="0" fill="#f2f2f2"/>
    <path d="m484.04 539.58-11.011-11.323 0.14043 13.036z" fill="#f2f2f2"/>
   </g>
   <g transform="matrix(-1 0 0 1 1049.8 30.948)">
    <rect x="468.16" y="523.23" width="19.436" height="143.44" ry="0" fill="#4d4d4d"/>
    <rect x="473.16" y="539.57" width="10.865" height="116.39" ry="0" fill="#f2f2f2"/>
    <path d="m484.04 539.58-11.011-11.323 0.14043 13.036z" fill="#f2f2f2"/>
   </g>
   <rect x="31.082" y="559.99" width="45.397" height="14.396" ry="0" fill="#4d4d4d"/>
   <rect x="31.082" y="680.91" width="45.397" height="6.4413" ry="0" fill="#b3b3b3"/>
   <rect x="31.082" y="686.92" width="45.397" height="10.861" ry="0" fill="#808080"/>
   <rect x="31.082" y="680.91" width="45.397" height="6.4413" ry="0" fill="#b3b3b3"/>
   <rect x="69.619" y="554.34" width="6.86" height="143.44" ry="0" fill="#4d4d4d"/>
   <rect x="35.293" y="589.41" width="22.017" height="28.047" ry="0" fill="#cccdd2"/>
   <rect x="37.588" y="589.59" width="17.534" height="28.047" ry="0" fill="#616b6d"/>
   <rect x="35.809" y="603.35" width="19.553" height="1.0625" ry="0" fill="#ccc"/>
   <rect x="45.96" y="589.59" width=".86381" height="28.047" ry="0" fill="#ccc"/>
   <rect x="35.293" y="636.91" width="22.017" height="28.047" ry="0" fill="#cccdd2"/>
   <rect x="37.588" y="637.09" width="17.534" height="28.047" ry="0" fill="#616b6d"/>
   <rect x="35.809" y="650.85" width="19.553" height="1.0625" ry="0" fill="#ccc"/>
   <rect x="45.96" y="637.09" width=".86381" height="28.047" ry="0" fill="#ccc"/>
   <rect x="932.45" y="505.38" width="19.436" height="193.82" ry="0" fill="#4d4d4d"/>
   <rect x="125.89" y="456.71" width="711.94" height="38.711" ry="0" fill="#4d4d4d"/>
   <rect x="116" y="617.35" width="351" height="5" fill="#ccc"/>
   <rect x="116" y="557.95" width="351" height="5" fill="#ccc"/>
   <rect x="582.23" y="668.02" width="350" height="5" fill="#ccc"/>
   <rect x="582.23" y="617.35" width="350" height="5" fill="#ccc"/>
   <rect x="582.23" y="557.95" width="350" height="5" fill="#ccc"/>
   <path d="m837.64 460.99 96.291 50.075-0.17857 34.286-96.25-50.179-9.4008-17.389z" fill="#4d4d4d"/>
   <rect x="126" y="495.42" width="712" height="5" fill="#ccc"/>
   <rect x="837.75" y="498.17" width="5.375" height="2.25" fill="#ccc"/>
   <rect x="466.78" y="706.59" width="120.3" height="9.8995" fill="#fff"/>
   <rect x="459.62" y="724.26" width="135.43" height="9.8995" fill="#fff"/>
   <rect x="451.49" y="743.36" width="151.85" height="9.8995" fill="#fff"/>
   <rect x="444.06" y="763.16" width="168.47" height="9.8995" fill="#fff"/>
   <rect x="471.83" y="518.41" width="10.402" height="18.229" ry="0" fill="#616b6d"/>
   <rect x="490.33" y="518.41" width="10.402" height="18.229" ry="0" fill="#616b6d"/>
   <rect x="509.08" y="518.41" width="10.402" height="18.229" ry="0" fill="#616b6d"/>
   <rect x="529.7" y="518.41" width="10.402" height="18.229" ry="0" fill="#616b6d"/>
   <rect x="548.2" y="518.41" width="10.402" height="18.229" ry="0" fill="#616b6d"/>
   <rect x="566.95" y="518.41" width="10.402" height="18.229" ry="0" fill="#616b6d"/>
   <path d="m466.87 706.68v9.8111h-4.5078z" fill="#fff"/>
   <path d="m586.99 706.68v9.8111h4.5078z" fill="#fff"/>
   <path d="m594.87 724.31v9.8111h4.5078z" fill="#fff"/>
   <path d="m459.68 724.31v9.8111h-4.5078z" fill="#fff"/>
   <path d="m452.09 743.47v9.8111h-4.5078z" fill="#fff"/>
   <path d="m603.21 743.48v9.8111h4.5078z" fill="#fff"/>
   <path d="m612.19 763.22v9.8111h4.5078z" fill="#fff"/>
   <path d="m444.16 763.21v9.8111h-4.5078z" fill="#fff"/>
   <rect x="31.082" y="559.99" width="45.397" height="14.396" ry="0" fill="#4d4d4d"/>
   <rect x="35.293" y="589.41" width="22.017" height="28.047" ry="0" fill="#cccdd2"/>
   <rect x="37.588" y="589.59" width="17.534" height="28.047" ry="0" fill="#616b6d"/>
   <rect x="35.809" y="603.35" width="19.553" height="1.0625" ry="0" fill="#ccc"/>
   <rect x="45.96" y="589.59" width=".86381" height="28.047" ry="0" fill="#ccc"/>
   <rect x="35.293" y="636.91" width="22.017" height="28.047" ry="0" fill="#cccdd2"/>
   <rect x="37.588" y="637.09" width="17.534" height="28.047" ry="0" fill="#616b6d"/>
   <rect x="35.809" y="650.85" width="19.553" height="1.0625" ry="0" fill="#ccc"/>
   <rect x="45.96" y="637.09" width=".86381" height="28.047" ry="0" fill="#ccc"/>
   <rect transform="scale(-1,1)" x="-1020.4" y="526.84" width="45.397" height="170.94" ry="0" fill="#fff"/>
   <rect transform="scale(-1,1)" x="-1020.4" y="606.49" width="45.397" height="9.3962" ry="0" fill="#4d4d4d"/>
   <rect transform="scale(-1,1)" x="-1020.4" y="680.91" width="45.397" height="6.4413" ry="0" fill="#b3b3b3"/>
   <rect transform="scale(-1,1)" x="-1020.4" y="686.92" width="45.397" height="10.861" ry="0" fill="#808080"/>
   <rect transform="scale(-1,1)" x="-1020.4" y="680.91" width="45.397" height="6.4413" ry="0" fill="#b3b3b3"/>
   <rect transform="scale(-1,1)" x="-981.87" y="527.34" width="11.86" height="170.44" ry="0" fill="#4d4d4d"/>
   <rect transform="scale(-1,1)" x="-1016.2" y="569.41" width="22.017" height="28.047" ry="0" fill="#cccdd2"/>
   <rect transform="scale(-1,1)" x="-1013.9" y="569.59" width="17.534" height="28.047" ry="0" fill="#616b6d"/>
   <rect transform="scale(-1,1)" x="-1015.7" y="583.35" width="19.553" height="1.0625" ry="0" fill="#ccc"/>
   <rect transform="scale(-1,1)" x="-1005.5" y="569.59" width=".86381" height="28.047" ry="0" fill="#ccc"/>
   <rect transform="scale(-1,1)" x="-1016.2" y="636.91" width="22.017" height="28.047" ry="0" fill="#cccdd2"/>
   <rect transform="scale(-1,1)" x="-1013.9" y="637.09" width="17.534" height="28.047" ry="0" fill="#616b6d"/>
   <rect transform="scale(-1,1)" x="-1015.7" y="650.85" width="19.553" height="1.0625" ry="0" fill="#ccc"/>
   <rect transform="scale(-1,1)" x="-1005.5" y="637.09" width=".86381" height="28.047" ry="0" fill="#ccc"/>
   <rect transform="scale(-1,1)" x="-1016.2" y="569.41" width="22.017" height="28.047" ry="0" fill="#cccdd2"/>
   <circle cx="1005" cy="569.41" r="9.9879" fill="#cccdd2"/>
   <rect transform="scale(-1,1)" x="-1013.9" y="569.59" width="17.534" height="28.047" ry="0" fill="#616b6d"/>
   <rect transform="scale(-1,1)" x="-1015.7" y="583.35" width="19.553" height="1.0625" ry="0" fill="#ccc"/>
   <path transform="scale(1,-1)" d="m1012.2-568.66a7.1702 6.8161 0 0 1 -3.5986 5.9103 7.1702 6.8161 0 0 1 -7.1835 -0.0222 7.1702 6.8161 0 0 1 -3.5581 -5.9324l7.17 0.0443z" fill="#616b6d"/>
   <rect transform="scale(-1,1)" x="-1005.5" y="559.84" width=".86381" height="37.797" ry="0" fill="#ccc"/>
   <rect transform="scale(-1,1)" x="-1016.2" y="636.91" width="22.017" height="28.047" ry="0" fill="#cccdd2"/>
   <circle cx="1005" cy="636.66" r="9.9879" fill="#cccdd2"/>
   <rect transform="scale(-1,1)" x="-1013.9" y="637.09" width="17.534" height="28.047" ry="0" fill="#616b6d"/>
   <rect transform="scale(-1,1)" x="-1015.7" y="650.85" width="19.553" height="1.0625" ry="0" fill="#ccc"/>
   <rect transform="scale(-1,1)" x="-1020.4" y="531.49" width="45.397" height="14.396" ry="0" fill="#4d4d4d"/>
   <path transform="scale(1,-1)" d="m1012.1-636.12a6.9668 6.6228 0 0 1 -3.4964 5.7427 6.9668 6.6228 0 0 1 -6.9799 -0.0215 6.9668 6.6228 0 0 1 -3.4572 -5.7642l6.9667 0.043z" fill="#616b6d"/>
   <rect transform="scale(-1,1)" x="-1005.5" y="627.54" width=".86381" height="37.593" ry="0" fill="#ccc"/>
   <path d="m102.97 749.8h281.83c0.0839 0 0.1515 0.15146 0.1515 0.15146l-12.581 17.627c-8.1015 0-0.26049 0.15146-0.34435 0.15146h-269.06c-0.0839 0-0.0332-2.6205 0.0414-2.6591l29.269-15.119c13.503 0 1.5994-0.15146-6.5319-0.15146z" fill="#4caf50"/>
   <rect x="102.82" y="764.91" width="267.62" height="7.8404" ry=".067694" fill="#fff"/>
   <path d="m384.79 750.21-0.19033 5.8832-14.091 16.733-0.062-7.8122z" fill="#ccc"/>
   <path d="m421.74 699.59h-299.95c-0.0442 0 8.1418 0.0568 8.104 0.0798l-15.276 9.285s1.3996 0.0798 1.4438 0.0798h305.68c0.0442 0-8.1332-0.0466-8.104-0.0798l8.1838-9.285c0.0292-0.0332-0.0356-0.0798-0.0798-0.0798z" fill="#4caf50"/>
   <g transform="translate(5.7868)">
    <g transform="translate(0,-268)" fill="#558b2f">
     <path d="m130.13 1026.1 2.361-38.553h2.361v39.665z"/>
     <path d="m130.61 1003.9-5.8172 3.2496-5.9901-6.5072 7.4086-16.968s-3.3956-5.5532-3.3956-6.7872 5.2478-19.128 5.2478-19.128l-3.3956-6.1702 8.026-16.043 8.9521 17.277-2.7782 5.2447 6.7912 18.819-4.013 5.5532 8.026 19.436-5.0546 4.8978-8.7595 6e-4z"/>
    </g>
    <g transform="translate(0,-268)">
     <path d="m130.13 1026.1 2.361-38.553h2.361v39.665z" fill="#784421"/>
     <path d="m131.04 1001.4-6.3945 5.4028-5.8455-6.2179 7.4086-16.968s-3.3956-5.5532-3.3956-6.7872 5.2478-19.128 5.2478-19.128l-3.3956-5.3504 2.4175-9.7004 5.6085-7.162 5.4586 17.084-4.3 5.4376 6.5983 18.24-4.352 7.0184 10.101 17.778-2.0177 4.6835-8.71-1.1353z" fill="#8bc34a"/>
    </g>
    <path d="m122.72 709.03 4.4365 2.5076 4.8223 0.57868 4.533-1.8325 4.1472-2.1218-4.3401 7.0406-2.8817 1.8413-4.5447-0.87687-2.8934-0.48224z" fill="#689f38"/>
    <path d="m124.51 684.34 3.7614 5.4492 1.3502-0.14467 1.9289 0.0964 1.4949-0.19288 0.86802 0.434 4.1472-5.2563-3.0381 1.2056h-2.4594l-2.0254-0.0965-2.5558 0.48224z" fill="#689f38"/>
    <path d="m118.77 732.46 5.0152 2.8934 2.3147-0.57868 1.953-1.302 3.5444-0.72334 4.7259 2.17 5.0007 0.6412 2.6184-1.6113 1.0046-3.3734 1.5032 2.945-2.2412 4.3006-8.6573-1.1179-4.6294-2.9898-6.2208 5.1599z" fill="#689f38"/>
   </g>
   <g transform="translate(53.17)">
    <g transform="translate(0,-268)" fill="#558b2f">
     <path d="m130.13 1026.1 2.361-38.553h2.361v39.665z"/>
     <path d="m130.61 1003.9-5.8172 3.2496-5.9901-6.5072 7.4086-16.968s-3.3956-5.5532-3.3956-6.7872 5.2478-19.128 5.2478-19.128l-3.3956-6.1702 8.026-16.043 8.9521 17.277-2.7782 5.2447 6.7912 18.819-4.013 5.5532 8.026 19.436-5.0546 4.8978-8.7595 6e-4z"/>
    </g>
    <g transform="translate(0,-268)">
     <path d="m130.13 1026.1 2.361-38.553h2.361v39.665z" fill="#784421"/>
     <path d="m131.04 1001.4-6.3945 5.4028-5.8455-6.2179 7.4086-16.968s-3.3956-5.5532-3.3956-6.7872 5.2478-19.128 5.2478-19.128l-3.3956-5.3504 2.4175-9.7004 5.6085-7.162 5.4586 17.084-4.3 5.4376 6.5983 18.24-4.352 7.0184 10.101 17.778-2.0177 4.6835-8.71-1.1353z" fill="#8bc34a"/>
    </g>
    <path d="m122.72 709.03 4.4365 2.5076 4.8223 0.57868 4.533-1.8325 4.1472-2.1218-4.3401 7.0406-2.8817 1.8413-4.5447-0.87687-2.8934-0.48224z" fill="#689f38"/>
    <path d="m124.51 684.34 3.7614 5.4492 1.3502-0.14467 1.9289 0.0964 1.4949-0.19288 0.86802 0.434 4.1472-5.2563-3.0381 1.2056h-2.4594l-2.0254-0.0965-2.5558 0.48224z" fill="#689f38"/>
    <path d="m118.77 732.46 5.0152 2.8934 2.3147-0.57868 1.953-1.302 3.5444-0.72334 4.7259 2.17 5.0007 0.6412 2.6184-1.6113 1.0046-3.3734 1.5032 2.945-2.2412 4.3006-8.6573-1.1179-4.6294-2.9898-6.2208 5.1599z" fill="#689f38"/>
   </g>
   <g transform="translate(104.82)">
    <g transform="translate(0,-268)" fill="#558b2f">
     <path d="m130.13 1026.1 2.361-38.553h2.361v39.665z"/>
     <path d="m130.61 1003.9-5.8172 3.2496-5.9901-6.5072 7.4086-16.968s-3.3956-5.5532-3.3956-6.7872 5.2478-19.128 5.2478-19.128l-3.3956-6.1702 8.026-16.043 8.9521 17.277-2.7782 5.2447 6.7912 18.819-4.013 5.5532 8.026 19.436-5.0546 4.8978-8.7595 6e-4z"/>
    </g>
    <g transform="translate(0,-268)">
     <path d="m130.13 1026.1 2.361-38.553h2.361v39.665z" fill="#784421"/>
     <path d="m131.04 1001.4-6.3945 5.4028-5.8455-6.2179 7.4086-16.968s-3.3956-5.5532-3.3956-6.7872 5.2478-19.128 5.2478-19.128l-3.3956-5.3504 2.4175-9.7004 5.6085-7.162 5.4586 17.084-4.3 5.4376 6.5983 18.24-4.352 7.0184 10.101 17.778-2.0177 4.6835-8.71-1.1353z" fill="#8bc34a"/>
    </g>
    <path d="m122.72 709.03 4.4365 2.5076 4.8223 0.57868 4.533-1.8325 4.1472-2.1218-4.3401 7.0406-2.8817 1.8413-4.5447-0.87687-2.8934-0.48224z" fill="#689f38"/>
    <path d="m124.51 684.34 3.7614 5.4492 1.3502-0.14467 1.9289 0.0964 1.4949-0.19288 0.86802 0.434 4.1472-5.2563-3.0381 1.2056h-2.4594l-2.0254-0.0965-2.5558 0.48224z" fill="#689f38"/>
    <path d="m118.77 732.46 5.0152 2.8934 2.3147-0.57868 1.953-1.302 3.5444-0.72334 4.7259 2.17 5.0007 0.6412 2.6184-1.6113 1.0046-3.3734 1.5032 2.945-2.2412 4.3006-8.6573-1.1179-4.6294-2.9898-6.2208 5.1599z" fill="#689f38"/>
   </g>
   <g transform="translate(155.45)">
    <g transform="translate(0,-268)" fill="#558b2f">
     <path d="m130.13 1026.1 2.361-38.553h2.361v39.665z"/>
     <path d="m130.61 1003.9-5.8172 3.2496-5.9901-6.5072 7.4086-16.968s-3.3956-5.5532-3.3956-6.7872 5.2478-19.128 5.2478-19.128l-3.3956-6.1702 8.026-16.043 8.9521 17.277-2.7782 5.2447 6.7912 18.819-4.013 5.5532 8.026 19.436-5.0546 4.8978-8.7595 6e-4z"/>
    </g>
    <g transform="translate(0,-268)">
     <path d="m130.13 1026.1 2.361-38.553h2.361v39.665z" fill="#784421"/>
     <path d="m131.04 1001.4-6.3945 5.4028-5.8455-6.2179 7.4086-16.968s-3.3956-5.5532-3.3956-6.7872 5.2478-19.128 5.2478-19.128l-3.3956-5.3504 2.4175-9.7004 5.6085-7.162 5.4586 17.084-4.3 5.4376 6.5983 18.24-4.352 7.0184 10.101 17.778-2.0177 4.6835-8.71-1.1353z" fill="#8bc34a"/>
    </g>
    <path d="m122.72 709.03 4.4365 2.5076 4.8223 0.57868 4.533-1.8325 4.1472-2.1218-4.3401 7.0406-2.8817 1.8413-4.5447-0.87687-2.8934-0.48224z" fill="#689f38"/>
    <path d="m124.51 684.34 3.7614 5.4492 1.3502-0.14467 1.9289 0.0964 1.4949-0.19288 0.86802 0.434 4.1472-5.2563-3.0381 1.2056h-2.4594l-2.0254-0.0965-2.5558 0.48224z" fill="#689f38"/>
    <path d="m118.77 732.46 5.0152 2.8934 2.3147-0.57868 1.953-1.302 3.5444-0.72334 4.7259 2.17 5.0007 0.6412 2.6184-1.6113 1.0046-3.3734 1.5032 2.945-2.2412 4.3006-8.6573-1.1179-4.6294-2.9898-6.2208 5.1599z" fill="#689f38"/>
   </g>
   <g transform="translate(203.57)">
    <g transform="translate(0,-268)" fill="#558b2f">
     <path d="m130.13 1026.1 2.361-38.553h2.361v39.665z"/>
     <path d="m130.61 1003.9-5.8172 3.2496-5.9901-6.5072 7.4086-16.968s-3.3956-5.5532-3.3956-6.7872 5.2478-19.128 5.2478-19.128l-3.3956-6.1702 8.026-16.043 8.9521 17.277-2.7782 5.2447 6.7912 18.819-4.013 5.5532 8.026 19.436-5.0546 4.8978-8.7595 6e-4z"/>
    </g>
    <g transform="translate(0,-268)">
     <path d="m130.13 1026.1 2.361-38.553h2.361v39.665z" fill="#784421"/>
     <path d="m131.04 1001.4-6.3945 5.4028-5.8455-6.2179 7.4086-16.968s-3.3956-5.5532-3.3956-6.7872 5.2478-19.128 5.2478-19.128l-3.3956-5.3504 2.4175-9.7004 5.6085-7.162 5.4586 17.084-4.3 5.4376 6.5983 18.24-4.352 7.0184 10.101 17.778-2.0177 4.6835-8.71-1.1353z" fill="#8bc34a"/>
    </g>
    <path d="m122.72 709.03 4.4365 2.5076 4.8223 0.57868 4.533-1.8325 4.1472-2.1218-4.3401 7.0406-2.8817 1.8413-4.5447-0.87687-2.8934-0.48224z" fill="#689f38"/>
    <path d="m124.51 684.34 3.7614 5.4492 1.3502-0.14467 1.9289 0.0964 1.4949-0.19288 0.86802 0.434 4.1472-5.2563-3.0381 1.2056h-2.4594l-2.0254-0.0965-2.5558 0.48224z" fill="#689f38"/>
    <path d="m118.77 732.46 5.0152 2.8934 2.3147-0.57868 1.953-1.302 3.5444-0.72334 4.7259 2.17 5.0007 0.6412 2.6184-1.6113 1.0046-3.3734 1.5032 2.945-2.2412 4.3006-8.6573-1.1179-4.6294-2.9898-6.2208 5.1599z" fill="#689f38"/>
   </g>
   <path d="m925.97 749.8h-281.83c-0.0839 0-0.1515 0.15146-0.1515 0.15146l12.581 17.627c8.1015 0 0.26049 0.15146 0.34435 0.15146h269.06c0.0839 0 0.0332-2.6205-0.0414-2.6591l-29.269-15.119c-13.503 0-1.5994-0.15146 6.5319-0.15146z" fill="#4caf50"/>
   <rect transform="scale(-1,1)" x="-926.12" y="764.91" width="267.62" height="7.8404" ry=".067694" fill="#fff"/>
   <path d="m644.15 750.21 0.19033 5.8832 14.091 16.733 0.062-7.8122z" fill="#ccc"/>
   <g transform="translate(553.6)">
    <g transform="translate(0,-268)" fill="#558b2f">
     <path d="m130.13 1026.1 2.361-38.553h2.361v39.665z"/>
     <path d="m130.61 1003.9-5.8172 3.2496-5.9901-6.5072 7.4086-16.968s-3.3956-5.5532-3.3956-6.7872 5.2478-19.128 5.2478-19.128l-3.3956-6.1702 8.026-16.043 8.9521 17.277-2.7782 5.2447 6.7912 18.819-4.013 5.5532 8.026 19.436-5.0546 4.8978-8.7595 6e-4z"/>
    </g>
    <g transform="translate(0,-268)">
     <path d="m130.13 1026.1 2.361-38.553h2.361v39.665z" fill="#784421"/>
     <path d="m131.04 1001.4-6.3945 5.4028-5.8455-6.2179 7.4086-16.968s-3.3956-5.5532-3.3956-6.7872 5.2478-19.128 5.2478-19.128l-3.3956-5.3504 2.4175-9.7004 5.6085-7.162 5.4586 17.084-4.3 5.4376 6.5983 18.24-4.352 7.0184 10.101 17.778-2.0177 4.6835-8.71-1.1353z" fill="#8bc34a"/>
    </g>
    <path d="m122.72 709.03 4.4365 2.5076 4.8223 0.57868 4.533-1.8325 4.1472-2.1218-4.3401 7.0406-2.8817 1.8413-4.5447-0.87687-2.8934-0.48224z" fill="#689f38"/>
    <path d="m124.51 684.34 3.7614 5.4492 1.3502-0.14467 1.9289 0.0964 1.4949-0.19288 0.86802 0.434 4.1472-5.2563-3.0381 1.2056h-2.4594l-2.0254-0.0965-2.5558 0.48224z" fill="#689f38"/>
    <path d="m118.77 732.46 5.0152 2.8934 2.3147-0.57868 1.953-1.302 3.5444-0.72334 4.7259 2.17 5.0007 0.6412 2.6184-1.6113 1.0046-3.3734 1.5032 2.945-2.2412 4.3006-8.6573-1.1179-4.6294-2.9898-6.2208 5.1599z" fill="#689f38"/>
   </g>
   <g transform="translate(600.99)">
    <g transform="translate(0,-268)" fill="#558b2f">
     <path d="m130.13 1026.1 2.361-38.553h2.361v39.665z"/>
     <path d="m130.61 1003.9-5.8172 3.2496-5.9901-6.5072 7.4086-16.968s-3.3956-5.5532-3.3956-6.7872 5.2478-19.128 5.2478-19.128l-3.3956-6.1702 8.026-16.043 8.9521 17.277-2.7782 5.2447 6.7912 18.819-4.013 5.5532 8.026 19.436-5.0546 4.8978-8.7595 6e-4z"/>
    </g>
    <g transform="translate(0,-268)">
     <path d="m130.13 1026.1 2.361-38.553h2.361v39.665z" fill="#784421"/>
     <path d="m131.04 1001.4-6.3945 5.4028-5.8455-6.2179 7.4086-16.968s-3.3956-5.5532-3.3956-6.7872 5.2478-19.128 5.2478-19.128l-3.3956-5.3504 2.4175-9.7004 5.6085-7.162 5.4586 17.084-4.3 5.4376 6.5983 18.24-4.352 7.0184 10.101 17.778-2.0177 4.6835-8.71-1.1353z" fill="#8bc34a"/>
    </g>
    <path d="m122.72 709.03 4.4365 2.5076 4.8223 0.57868 4.533-1.8325 4.1472-2.1218-4.3401 7.0406-2.8817 1.8413-4.5447-0.87687-2.8934-0.48224z" fill="#689f38"/>
    <path d="m124.51 684.34 3.7614 5.4492 1.3502-0.14467 1.9289 0.0964 1.4949-0.19288 0.86802 0.434 4.1472-5.2563-3.0381 1.2056h-2.4594l-2.0254-0.0965-2.5558 0.48224z" fill="#689f38"/>
    <path d="m118.77 732.46 5.0152 2.8934 2.3147-0.57868 1.953-1.302 3.5444-0.72334 4.7259 2.17 5.0007 0.6412 2.6184-1.6113 1.0046-3.3734 1.5032 2.945-2.2412 4.3006-8.6573-1.1179-4.6294-2.9898-6.2208 5.1599z" fill="#689f38"/>
   </g>
   <g transform="translate(652.64)">
    <g transform="translate(0,-268)" fill="#558b2f">
     <path d="m130.13 1026.1 2.361-38.553h2.361v39.665z"/>
     <path d="m130.61 1003.9-5.8172 3.2496-5.9901-6.5072 7.4086-16.968s-3.3956-5.5532-3.3956-6.7872 5.2478-19.128 5.2478-19.128l-3.3956-6.1702 8.026-16.043 8.9521 17.277-2.7782 5.2447 6.7912 18.819-4.013 5.5532 8.026 19.436-5.0546 4.8978-8.7595 6e-4z"/>
    </g>
    <g transform="translate(0,-268)">
     <path d="m130.13 1026.1 2.361-38.553h2.361v39.665z" fill="#784421"/>
     <path d="m131.04 1001.4-6.3945 5.4028-5.8455-6.2179 7.4086-16.968s-3.3956-5.5532-3.3956-6.7872 5.2478-19.128 5.2478-19.128l-3.3956-5.3504 2.4175-9.7004 5.6085-7.162 5.4586 17.084-4.3 5.4376 6.5983 18.24-4.352 7.0184 10.101 17.778-2.0177 4.6835-8.71-1.1353z" fill="#8bc34a"/>
    </g>
    <path d="m122.72 709.03 4.4365 2.5076 4.8223 0.57868 4.533-1.8325 4.1472-2.1218-4.3401 7.0406-2.8817 1.8413-4.5447-0.87687-2.8934-0.48224z" fill="#689f38"/>
    <path d="m124.51 684.34 3.7614 5.4492 1.3502-0.14467 1.9289 0.0964 1.4949-0.19288 0.86802 0.434 4.1472-5.2563-3.0381 1.2056h-2.4594l-2.0254-0.0965-2.5558 0.48224z" fill="#689f38"/>
    <path d="m118.77 732.46 5.0152 2.8934 2.3147-0.57868 1.953-1.302 3.5444-0.72334 4.7259 2.17 5.0007 0.6412 2.6184-1.6113 1.0046-3.3734 1.5032 2.945-2.2412 4.3006-8.6573-1.1179-4.6294-2.9898-6.2208 5.1599z" fill="#689f38"/>
   </g>
   <g transform="translate(703.27)">
    <g transform="translate(0,-268)" fill="#558b2f">
     <path d="m130.13 1026.1 2.361-38.553h2.361v39.665z"/>
     <path d="m130.61 1003.9-5.8172 3.2496-5.9901-6.5072 7.4086-16.968s-3.3956-5.5532-3.3956-6.7872 5.2478-19.128 5.2478-19.128l-3.3956-6.1702 8.026-16.043 8.9521 17.277-2.7782 5.2447 6.7912 18.819-4.013 5.5532 8.026 19.436-5.0546 4.8978-8.7595 6e-4z"/>
    </g>
    <g transform="translate(0,-268)">
     <path d="m130.13 1026.1 2.361-38.553h2.361v39.665z" fill="#784421"/>
     <path d="m131.04 1001.4-6.3945 5.4028-5.8455-6.2179 7.4086-16.968s-3.3956-5.5532-3.3956-6.7872 5.2478-19.128 5.2478-19.128l-3.3956-5.3504 2.4175-9.7004 5.6085-7.162 5.4586 17.084-4.3 5.4376 6.5983 18.24-4.352 7.0184 10.101 17.778-2.0177 4.6835-8.71-1.1353z" fill="#8bc34a"/>
    </g>
    <path d="m122.72 709.03 4.4365 2.5076 4.8223 0.57868 4.533-1.8325 4.1472-2.1218-4.3401 7.0406-2.8817 1.8413-4.5447-0.87687-2.8934-0.48224z" fill="#689f38"/>
    <path d="m124.51 684.34 3.7614 5.4492 1.3502-0.14467 1.9289 0.0964 1.4949-0.19288 0.86802 0.434 4.1472-5.2563-3.0381 1.2056h-2.4594l-2.0254-0.0965-2.5558 0.48224z" fill="#689f38"/>
    <path d="m118.77 732.46 5.0152 2.8934 2.3147-0.57868 1.953-1.302 3.5444-0.72334 4.7259 2.17 5.0007 0.6412 2.6184-1.6113 1.0046-3.3734 1.5032 2.945-2.2412 4.3006-8.6573-1.1179-4.6294-2.9898-6.2208 5.1599z" fill="#689f38"/>
   </g>
   <g transform="translate(751.39)">
    <g transform="translate(0,-268)" fill="#558b2f">
     <path d="m130.13 1026.1 2.361-38.553h2.361v39.665z"/>
     <path d="m130.61 1003.9-5.8172 3.2496-5.9901-6.5072 7.4086-16.968s-3.3956-5.5532-3.3956-6.7872 5.2478-19.128 5.2478-19.128l-3.3956-6.1702 8.026-16.043 8.9521 17.277-2.7782 5.2447 6.7912 18.819-4.013 5.5532 8.026 19.436-5.0546 4.8978-8.7595 6e-4z"/>
    </g>
    <g transform="translate(0,-268)">
     <path d="m130.13 1026.1 2.361-38.553h2.361v39.665z" fill="#784421"/>
     <path d="m131.04 1001.4-6.3945 5.4028-5.8455-6.2179 7.4086-16.968s-3.3956-5.5532-3.3956-6.7872 5.2478-19.128 5.2478-19.128l-3.3956-5.3504 2.4175-9.7004 5.6085-7.162 5.4586 17.084-4.3 5.4376 6.5983 18.24-4.352 7.0184 10.101 17.778-2.0177 4.6835-8.71-1.1353z" fill="#8bc34a"/>
    </g>
    <path d="m122.72 709.03 4.4365 2.5076 4.8223 0.57868 4.533-1.8325 4.1472-2.1218-4.3401 7.0406-2.8817 1.8413-4.5447-0.87687-2.8934-0.48224z" fill="#689f38"/>
    <path d="m124.51 684.34 3.7614 5.4492 1.3502-0.14467 1.9289 0.0964 1.4949-0.19288 0.86802 0.434 4.1472-5.2563-3.0381 1.2056h-2.4594l-2.0254-0.0965-2.5558 0.48224z" fill="#689f38"/>
    <path d="m118.77 732.46 5.0152 2.8934 2.3147-0.57868 1.953-1.302 3.5444-0.72334 4.7259 2.17 5.0007 0.6412 2.6184-1.6113 1.0046-3.3734 1.5032 2.945-2.2412 4.3006-8.6573-1.1179-4.6294-2.9898-6.2208 5.1599z" fill="#689f38"/>
   </g>
  </g>
 </g>
</svg>
