<?xml version="1.0" encoding="UTF-8" standalone="no"?>
<svg
   xmlns:dc="http://purl.org/dc/elements/1.1/"
   xmlns:cc="http://creativecommons.org/ns#"
   xmlns:rdf="http://www.w3.org/1999/02/22-rdf-syntax-ns#"
   xmlns:svg="http://www.w3.org/2000/svg"
   xmlns="http://www.w3.org/2000/svg"
   xmlns:sodipodi="http://sodipodi.sourceforge.net/DTD/sodipodi-0.dtd"
   xmlns:inkscape="http://www.inkscape.org/namespaces/inkscape"
   width="81.025787mm"
   height="100.00001mm"
   viewBox="0 0 81.02579 100.00001"
   version="1.1"
   id="svg8"
   inkscape:version="1.0.2-2 (e86c870879, 2021-01-15)"
   sodipodi:docname="accessibility-icon-dark.svg">
  <defs
     id="defs2" />
  <sodipodi:namedview
     id="base"
     pagecolor="#ffffff"
     bordercolor="#666666"
     borderopacity="1.0"
     inkscape:pageopacity="0.0"
     inkscape:pageshadow="2"
     inkscape:zoom="0.98994949"
     inkscape:cx="302.13979"
     inkscape:cy="189.39089"
     inkscape:document-units="mm"
     inkscape:current-layer="layer1"
     inkscape:document-rotation="0"
     showgrid="false"
     inkscape:window-width="1431"
     inkscape:window-height="1030"
     inkscape:window-x="192"
     inkscape:window-y="0"
     inkscape:window-maximized="0" />
  <metadata
     id="metadata5">
    <rdf:RDF>
      <cc:Work
         rdf:about="">
        <dc:format>image/svg+xml</dc:format>
        <dc:type
           rdf:resource="http://purl.org/dc/dcmitype/StillImage" />
        <dc:title></dc:title>
      </cc:Work>
    </rdf:RDF>
  </metadata>
  <g
     inkscape:label="Layer 1"
     inkscape:groupmode="layer"
     id="layer1"
     transform="translate(-51.771161,-19.447185)">
    <path
       style="fill:#ffffff;fill-opacity:1;stroke-width:0.196787"
       d="m 75.604569,119.13272 c -2.07044,-0.55719 -3.54181,-2.12786 -3.85986,-4.12039 -0.0928,-0.58167 0.72233,-5.4385 3.12269,-18.604916 4.60983,-25.285817 5.5159,-32.610291 4.31986,-34.921117 -0.75803,-1.464581 -1.29919,-1.693436 -11.6954,-4.94596 -5.33204,-1.668164 -10.44789,-3.386023 -11.36856,-3.817464 -2.17969,-1.02144 -3.22536,-1.895912 -3.88897,-3.252277 -0.47965,-0.980385 -0.52128,-1.231741 -0.41513,-2.506839 0.21927,-2.634012 1.91402,-5.016826 3.82286,-5.374925 0.84314,-0.158175 1.3721,-0.05168 5.75721,1.159146 8.53982,2.358024 16.87892,4.025398 24.49996,4.898677 3.14496,0.360371 10.03193,0.308625 13.47991,-0.101288 7.760471,-0.922604 14.910891,-2.416982 26.664621,-5.572688 2.22764,-0.598087 2.91271,-0.556728 4.15849,0.251048 1.61168,1.045036 2.78327,3.656771 2.56951,5.727997 -0.20582,1.994106 -1.54496,3.527644 -4.14588,4.747696 -0.66253,0.310784 -5.45521,2.047682 -10.65038,3.85977 -5.19518,1.81209 -9.92747,3.529168 -10.51621,3.815727 -1.6685,0.812114 -2.28327,1.501449 -2.57114,2.883016 -0.57224,2.746325 0.59123,10.948571 4.63643,32.686095 1.77984,9.564222 3.23607,17.880772 3.23607,18.481202 0,2.35719 -1.5752,4.2105 -4.08027,4.80069 -0.46748,0.15561 -1.59011,0.3576 -3.10679,0.0927 -0.65841,-0.0202 -1.87178,-0.73215 -2.59245,-1.48478 -1.16463,-1.2163 -1.5932,-2.56524 -2.91334,-9.16993 -3.110111,-15.559848 -5.482551,-24.324386 -7.030211,-25.971788 -1.37365,-1.46219 -2.50582,0.370468 -4.3674,7.06961 -1.30554,4.69817 -2.75493,11.327988 -4.93941,22.594018 -0.81247,4.19011 -2.04203,6.17135 -4.18733,6.74718 -0.62774,0.1685 -1.24172,0.28636 -1.87405,0.29535 -0.69387,0.01 -1.26665,-0.0564 -2.06483,-0.26551 z m 14.3288,-78.705745 c -4.06985,-0.998414 -7.0115,-3.953196 -7.96586,-8.001425 -0.39955,-1.694806 -0.37264,-3.157368 0.0915,-4.972109 0.49534,-1.936792 1.3461,-3.424204 2.75526,-4.817113 1.44214,-1.425508 2.90906,-2.280417 4.73175,-2.7576 1.50842,-0.569588 3.11002,-0.411359 3.11002,-0.411359 0,0 0.88306,0.02572 2.07871,0.318597 4.97147,1.202915 8.463121,5.886225 8.128911,10.903187 -0.43735,6.564987 -6.684801,11.269961 -12.930291,9.737822 z"
       id="path849-1"
       sodipodi:nodetypes="cssssssssssssssssssssccssssssacsssscccss" />
  </g>
</svg>
