<?xml version="1.0" encoding="UTF-8" standalone="no"?>
<svg
   xmlns:dc="http://purl.org/dc/elements/1.1/"
   xmlns:cc="http://creativecommons.org/ns#"
   xmlns:rdf="http://www.w3.org/1999/02/22-rdf-syntax-ns#"
   xmlns:svg="http://www.w3.org/2000/svg"
   xmlns="http://www.w3.org/2000/svg"
   xmlns:sodipodi="http://sodipodi.sourceforge.net/DTD/sodipodi-0.dtd"
   xmlns:inkscape="http://www.inkscape.org/namespaces/inkscape"
   width="16"
   height="16"
   fill="currentColor"
   class="bi bi-brightness-high-fill"
   viewBox="0 0 16 16"
   version="1.1"
   id="svg4"
   sodipodi:docname="sun.svg"
   inkscape:version="1.0.2-2 (e86c870879, 2021-01-15)">
  <metadata
     id="metadata10">
    <rdf:RDF>
      <cc:Work
         rdf:about="">
        <dc:format>image/svg+xml</dc:format>
        <dc:type
           rdf:resource="http://purl.org/dc/dcmitype/StillImage" />
        <dc:title />
      </cc:Work>
    </rdf:RDF>
  </metadata>
  <defs
     id="defs8" />
  <sodipodi:namedview
     pagecolor="#ffffff"
     bordercolor="#666666"
     borderopacity="1"
     objecttolerance="10"
     gridtolerance="10"
     guidetolerance="10"
     inkscape:pageopacity="0"
     inkscape:pageshadow="2"
     inkscape:window-width="1920"
     inkscape:window-height="1001"
     id="namedview6"
     showgrid="false"
     inkscape:zoom="5.954626"
     inkscape:cx="61.585733"
     inkscape:cy="34.329653"
     inkscape:window-x="-9"
     inkscape:window-y="-9"
     inkscape:window-maximized="1"
     inkscape:current-layer="svg4"
     inkscape:document-rotation="0"
     fit-margin-top="0"
     fit-margin-left="0"
     fit-margin-right="0"
     fit-margin-bottom="0" />
  <g
     transform="matrix(0.14177253,0,0,0.14177253,22.627346,13.911993)"
     id="g6"
     style="fill:none;fill-opacity:1">
    <path
       d="m 109.9,-133.7 c 27.5,25.9 41.5,65.2 46.2,104.3 4.7,39.1 0.1,78 -18.9,106.4 -19.1,28.3 -52.5,46.1 -92,70.7 -39.5,24.6 -85.1,55.9 -131.9,54.5 -46.8,-1.4 -94.8,-35.6 -129.8,-83.4 -35,-47.8 -57,-109.4 -46.1,-164.1 10.8,-54.8 54.4,-102.8 103.7,-125 49.2,-22.1 104,-18.4 152,-10.2 48,8.1 89.2,20.8 116.8,46.8"
       fill="#23a6d5"
       id="path4"
       style="fill:none;fill-opacity:1" />
  </g>
  <path
     d="M 12,8 A 4,4 0 1 1 4,8 4,4 0 0 1 12,8 Z M 8,0 a 0.5,0.5 0 0 1 0.5,0.5 v 2 a 0.5,0.5 0 0 1 -1,0 v -2 A 0.5,0.5 0 0 1 8,0 Z m 0,13 a 0.5,0.5 0 0 1 0.5,0.5 v 2 a 0.5,0.5 0 0 1 -1,0 v -2 A 0.5,0.5 0 0 1 8,13 Z m 8,-5 a 0.5,0.5 0 0 1 -0.5,0.5 h -2 a 0.5,0.5 0 0 1 0,-1 h 2 A 0.5,0.5 0 0 1 16,8 Z M 3,8 A 0.5,0.5 0 0 1 2.5,8.5 h -2 a 0.5,0.5 0 0 1 0,-1 h 2 A 0.5,0.5 0 0 1 3,8 Z M 13.657,2.343 a 0.5,0.5 0 0 1 0,0.707 L 12.243,4.465 A 0.50027817,0.50027817 0 1 1 11.536,3.757 L 12.95,2.343 a 0.5,0.5 0 0 1 0.707,0 z m -9.193,9.193 a 0.5,0.5 0 0 1 0,0.707 L 3.05,13.657 A 0.5,0.5 0 0 1 2.343,12.95 l 1.414,-1.414 a 0.5,0.5 0 0 1 0.707,0 z m 9.193,2.121 a 0.5,0.5 0 0 1 -0.707,0 l -1.414,-1.414 a 0.5,0.5 0 0 1 0.707,-0.707 l 1.414,1.414 a 0.5,0.5 0 0 1 0,0.707 z M 4.464,4.465 a 0.5,0.5 0 0 1 -0.707,0 L 2.343,3.05 A 0.5,0.5 0 1 1 3.05,2.343 l 1.414,1.414 a 0.5,0.5 0 0 1 0,0.708 z"
     id="path2"
     style="fill:#ffffff;fill-opacity:1;stroke-width:1.00001" />
</svg>
