<?xml version="1.0" encoding="UTF-8" standalone="no"?>
<svg
   xmlns:dc="http://purl.org/dc/elements/1.1/"
   xmlns:cc="http://creativecommons.org/ns#"
   xmlns:rdf="http://www.w3.org/1999/02/22-rdf-syntax-ns#"
   xmlns:svg="http://www.w3.org/2000/svg"
   xmlns="http://www.w3.org/2000/svg"
   xmlns:sodipodi="http://sodipodi.sourceforge.net/DTD/sodipodi-0.dtd"
   xmlns:inkscape="http://www.inkscape.org/namespaces/inkscape"
   viewBox="0 0 36 36"
   width="36"
   height="36"
   version="1.1"
   id="svg6"
   sodipodi:docname="bootstrap.svg"
   inkscape:version="1.0.2-2 (e86c870879, 2021-01-15)">
  <metadata
     id="metadata12">
    <rdf:RDF>
      <cc:Work
         rdf:about="">
        <dc:format>image/svg+xml</dc:format>
        <dc:type
           rdf:resource="http://purl.org/dc/dcmitype/StillImage" />
        <dc:title></dc:title>
      </cc:Work>
    </rdf:RDF>
  </metadata>
  <defs
     id="defs10" />
  <sodipodi:namedview
     pagecolor="#ffffff"
     bordercolor="#666666"
     borderopacity="1"
     objecttolerance="10"
     gridtolerance="10"
     guidetolerance="10"
     inkscape:pageopacity="0"
     inkscape:pageshadow="2"
     inkscape:window-width="1920"
     inkscape:window-height="1001"
     id="namedview8"
     showgrid="false"
     fit-margin-top="0"
     fit-margin-left="0"
     fit-margin-right="0"
     fit-margin-bottom="0"
     inkscape:zoom="17.291667"
     inkscape:cx="18"
     inkscape:cy="18"
     inkscape:window-x="-9"
     inkscape:window-y="-9"
     inkscape:window-maximized="1"
     inkscape:current-layer="svg6" />
  <path
     fill="#673ab7"
     d="m 36,31 c 0,2.762 -2.238,5 -5,5 H 5 C 2.239,36 0,33.762 0,31 V 5 C 0,2.238 2.239,0 5,0 h 26 c 2.762,0 5,2.238 5,5 z"
     id="path2" />
  <path
     fill="#ffffff"
     d="m 27.03,19.6 c -0.65,-0.9 -1.59,-1.52 -2.8,-1.85 0,0 1.02,-0.37 1.94,-1.75 C 26.72,15.12 27,14.06 27,12.82 27,10.67 26.22,9.02 24.66,7.89 23.1,6.76 21.34,6 18.35,6 H 9 v 24 h 10.43 c 2.83,-0.02 4.96,-0.63 6.41,-1.8 C 27.28,27.01 28,25.25 28,22.9 28,21.6 27.68,20.5 27.03,19.6 Z M 15,10 c 0,0 4.17,0 4.25,0 1.52,0 2.75,1.23 2.75,2.75 0,1.52 -1.23,2.75 -2.75,2.75 -0.08,0 -4.25,0 -4.25,0 z m 5,16 h -5 v -6 h 5 c 1.66,0 3,1.34 3,3 0,1.66 -1.34,3 -3,3 z"
     id="path4" />
</svg>
