<?xml version="1.0" encoding="UTF-8" standalone="no"?>
<svg
   xmlns:dc="http://purl.org/dc/elements/1.1/"
   xmlns:cc="http://creativecommons.org/ns#"
   xmlns:rdf="http://www.w3.org/1999/02/22-rdf-syntax-ns#"
   xmlns:svg="http://www.w3.org/2000/svg"
   xmlns="http://www.w3.org/2000/svg"
   xmlns:sodipodi="http://sodipodi.sourceforge.net/DTD/sodipodi-0.dtd"
   xmlns:inkscape="http://www.inkscape.org/namespaces/inkscape"
   version="1.1"
   id="svg1582"
   xml:space="preserve"
   width="47.645161"
   height="36"
   viewBox="0 0 47.645163 36"
   sodipodi:docname="coffee-icon.svg"
   inkscape:version="1.0.2-2 (e86c870879, 2021-01-15)"><metadata
     id="metadata1588"><rdf:RDF><cc:Work
         rdf:about=""><dc:format>image/svg+xml</dc:format><dc:type
           rdf:resource="http://purl.org/dc/dcmitype/StillImage" /><dc:title></dc:title></cc:Work></rdf:RDF></metadata><defs
     id="defs1586"><clipPath
       clipPathUnits="userSpaceOnUse"
       id="clipPath1598"><path
         d="M 0,1068.865 H 731.608 V 0 H 0 Z"
         id="path1596" /></clipPath></defs><sodipodi:namedview
     pagecolor="#ffffff"
     bordercolor="#666666"
     borderopacity="1"
     objecttolerance="10"
     gridtolerance="10"
     guidetolerance="10"
     inkscape:pageopacity="0"
     inkscape:pageshadow="2"
     inkscape:window-width="1920"
     inkscape:window-height="1001"
     id="namedview1584"
     showgrid="false"
     fit-margin-top="0"
     fit-margin-left="0"
     fit-margin-right="0"
     fit-margin-bottom="0"
     inkscape:zoom="12.294248"
     inkscape:cx="17.338408"
     inkscape:cy="17.477623"
     inkscape:window-x="-9"
     inkscape:window-y="-9"
     inkscape:window-maximized="1"
     inkscape:current-layer="g1590"
     inkscape:document-rotation="0" /><g
     id="g1590"
     inkscape:groupmode="layer"
     inkscape:label="vectorstock_35086079"
     transform="matrix(1.3333333,0,0,-1.3333333,-231.17119,1384.4555)"><g
       id="g1592"
       transform="matrix(0.05346736,0,0,0.05346736,170.14581,999.72176)"><g
         id="g1594"
         clip-path="url(#clipPath1598)"><g
           id="g1600"
           transform="translate(48.8195,64.4811)" /><g
           id="g1604"
           transform="translate(112.6887,104.4167)" /><g
           id="g1608"
           transform="translate(139.4318,62.6227)" /><g
           id="g1612"
           transform="translate(200.173,62.6227)" /><g
           id="g1616"
           transform="translate(305.4274,62.6227)" /><g
           id="g1620"
           transform="translate(410.4084,68.153)" /><g
           id="g1624"
           transform="translate(476.6789,94.3532)" /><g
           id="g1628"
           transform="translate(517.6555,113.4821)" /><g
           id="g1632"
           transform="translate(577.1262,113.4821)" /><g
           id="g1636"
           transform="translate(622.6369,62.6227)" /><g
           id="g1640"
           transform="translate(683.3771,62.6227)" /><g
           id="g1644"
           transform="translate(160.1574,28.0934)" /><g
           id="g1648"
           transform="translate(192.7126,40.5934)" /><g
           id="g1652"
           transform="translate(258.8195,27.0241)" /><g
           id="g1656"
           transform="translate(301.8644,1.7917)" /><g
           id="g1660"
           transform="translate(335.7014,35.5768)" /><g
           id="g1664"
           transform="translate(393.2844,40.5934)" /><g
           id="g1668"
           transform="translate(430.5705,18.6432)" /><g
           id="g1672"
           transform="translate(498.2453,36.4889)" /><g
           id="g1676"
           transform="translate(531.9904,34.3434)" /><g
           id="g1680"
           transform="translate(577.6652,36.4889)" /><g
           id="g1684"
           transform="translate(354.1257,944.778)" /><g
           id="g1688"
           transform="translate(463.7267,914.3962)" /><g
           id="g1692"
           transform="translate(260.3332,914.3962)" /><g
           id="g1696"
           transform="translate(559.341,439.1472)"><path
             d="m 0,0 c -19.7,-72.88 -86.28,-126.489 -165.391,-126.489 -90.52,0 -164.639,70.209 -170.88,159.149 C -216.311,95.71 -113.74,-18.9 0,0"
             style="fill:#8c6239;fill-opacity:1;fill-rule:nonzero;stroke:none"
             id="path1698" /></g><g
           id="g1700"
           transform="translate(629.0324,478.8337)"><path
             d="M 0,0 H -14.527 V 139.998 H 0 c 38.593,0 70,-31.407 70,-69.999 C 70,31.407 38.593,0 0,0 m -158.858,-174.338 c -23.377,-10.195 -49.158,-15.849 -76.233,-15.849 -27.075,0 -52.856,5.654 -76.233,15.849 -67.78,29.506 -115.274,97.128 -115.274,175.658 v 161.359 c 38.016,-16.253 109.544,-27.205 191.516,-27.205 81.964,0 153.478,10.948 191.498,27.195 V 1.32 c 0,-78.53 -47.494,-146.152 -115.274,-175.658 m 84.369,-42.264 c -22.875,-7.263 -76.92,-15.848 -160.602,-15.848 -83.682,0 -137.726,8.585 -160.576,15.848 14.344,4.571 40.97,9.642 79.509,12.786 25.094,-9.958 52.46,-15.426 81.067,-15.426 28.608,0 55.973,5.468 81.067,15.426 38.539,-3.144 65.192,-8.215 79.535,-12.786 m -160.593,434.576 c 102.17,0 184.99,-12.76 184.99,-28.5 0,-15.741 -82.82,-28.5 -184.99,-28.5 -102.16,0 -184.98,12.759 -184.98,28.5 0,15.74 82.82,28.5 184.98,28.5 M 99.028,72.37 c -1.27,54.083 -46.786,96.684 -100.883,96.684 h -12.672 v 20.42 h -0.005 c 0,29.819 -98.739,54 -220.55,54 -121.8,0 -220.55,-24.181 -220.55,-54 h -0.022 V 1.32 c 0,-74.832 37.456,-141.081 94.644,-180.994 -2.43,-0.343 -4.834,-0.713 -7.185,-1.109 -47.097,-7.739 -66.327,-18.12 -66.327,-35.819 0,-17.697 19.23,-28.078 66.327,-35.818 35.686,-5.863 82.943,-9.087 133.104,-9.087 50.161,0 97.418,3.224 133.104,9.087 47.124,7.74 66.328,18.121 66.328,35.818 0,17.699 -19.204,28.08 -66.328,35.819 -2.351,0.396 -4.755,0.766 -7.185,1.109 49.317,34.419 83.946,88.411 92.558,150.617 H 0 c 55.414,0 100.336,45.722 99.028,101.427"
             style="fill:#603813;fill-opacity:1;fill-rule:nonzero;stroke:none"
             id="path1702" /></g></g></g></g></svg>
