<?xml version="1.0" encoding="UTF-8" standalone="no"?>
<svg
   xmlns:dc="http://purl.org/dc/elements/1.1/"
   xmlns:cc="http://creativecommons.org/ns#"
   xmlns:rdf="http://www.w3.org/1999/02/22-rdf-syntax-ns#"
   xmlns:svg="http://www.w3.org/2000/svg"
   xmlns="http://www.w3.org/2000/svg"
   xmlns:sodipodi="http://sodipodi.sourceforge.net/DTD/sodipodi-0.dtd"
   xmlns:inkscape="http://www.inkscape.org/namespaces/inkscape"
   viewBox="0 0 32 36"
   width="32"
   height="36"
   version="1.1"
   id="svg10"
   sodipodi:docname="css3.svg"
   inkscape:version="1.0.2-2 (e86c870879, 2021-01-15)">
  <metadata
     id="metadata16">
    <rdf:RDF>
      <cc:Work
         rdf:about="">
        <dc:format>image/svg+xml</dc:format>
        <dc:type
           rdf:resource="http://purl.org/dc/dcmitype/StillImage" />
      </cc:Work>
    </rdf:RDF>
  </metadata>
  <defs
     id="defs14" />
  <sodipodi:namedview
     pagecolor="#ffffff"
     bordercolor="#666666"
     borderopacity="1"
     objecttolerance="10"
     gridtolerance="10"
     guidetolerance="10"
     inkscape:pageopacity="0"
     inkscape:pageshadow="2"
     inkscape:window-width="1920"
     inkscape:window-height="1001"
     id="namedview12"
     showgrid="false"
     inkscape:zoom="17.291667"
     inkscape:cx="17"
     inkscape:cy="19"
     inkscape:window-x="-9"
     inkscape:window-y="-9"
     inkscape:window-maximized="1"
     inkscape:current-layer="svg10" />
  <path
     fill="#0277bd"
     d="M 32,0 H 0 L 2.8235294,32.210526 16,36 29.176471,32.210526 Z"
     id="path2"
     style="stroke-width:0.944267" />
  <path
     fill="#039be5"
     d="M 16,2.8421053 V 33.063158 L 26.541176,30.031579 28.894118,2.8421053 Z"
     id="path4"
     style="stroke-width:0.944267" />
  <path
     fill="#ffffff"
     d="M 24.564706,7.578947 H 16 v 3.789474 h 4.611765 l -0.282353,3.789474 H 16 v 3.789473 h 4.141176 L 19.858824,23.210526 16,24.536842 v 3.978947 l 7.435294,-2.463157 0.658824,-10.894737 v 0 z"
     id="path6"
     style="stroke-width:0.944267" />
  <path
     fill="#eeeeee"
     d="m 16,7.578947 v 3.789474 H 7.623529 L 7.341176,7.578947 Z m -4.329412,7.578948 0.188236,3.789473 H 16 v -3.789473 z m 0.376471,5.68421 H 8.282353 L 8.564706,26.052632 16,28.515789 v -3.978947 l -3.858824,-1.326316 z"
     id="path8"
     style="stroke-width:0.944267" />
</svg>
