<?xml version="1.0" encoding="UTF-8" standalone="no"?>
<svg
   xmlns:dc="http://purl.org/dc/elements/1.1/"
   xmlns:cc="http://creativecommons.org/ns#"
   xmlns:rdf="http://www.w3.org/1999/02/22-rdf-syntax-ns#"
   xmlns:svg="http://www.w3.org/2000/svg"
   xmlns="http://www.w3.org/2000/svg"
   xmlns:sodipodi="http://sodipodi.sourceforge.net/DTD/sodipodi-0.dtd"
   xmlns:inkscape="http://www.inkscape.org/namespaces/inkscape"
   viewBox="0 0 24 36"
   width="24"
   height="36"
   version="1.1"
   id="svg12"
   sodipodi:docname="figma.svg"
   inkscape:version="1.0.2-2 (e86c870879, 2021-01-15)">
  <metadata
     id="metadata18">
    <rdf:RDF>
      <cc:Work
         rdf:about="">
        <dc:format>image/svg+xml</dc:format>
        <dc:type
           rdf:resource="http://purl.org/dc/dcmitype/StillImage" />
        <dc:title></dc:title>
      </cc:Work>
    </rdf:RDF>
  </metadata>
  <defs
     id="defs16" />
  <sodipodi:namedview
     pagecolor="#ffffff"
     bordercolor="#666666"
     borderopacity="1"
     objecttolerance="10"
     gridtolerance="10"
     guidetolerance="10"
     inkscape:pageopacity="0"
     inkscape:pageshadow="2"
     inkscape:window-width="1920"
     inkscape:window-height="1001"
     id="namedview14"
     showgrid="false"
     fit-margin-top="0"
     fit-margin-left="0"
     fit-margin-right="0"
     fit-margin-bottom="0"
     inkscape:zoom="17.291667"
     inkscape:cx="10.975904"
     inkscape:cy="17.963855"
     inkscape:window-x="-9"
     inkscape:window-y="-9"
     inkscape:window-maximized="1"
     inkscape:current-layer="svg12" />
  <g
     id="g848"
     transform="scale(0.85714286)">
    <path
       fill="#e64a19"
       d="M 15,14 H 7 C 3.134,14 0,10.866 0,7 V 7 C 0,3.134 3.134,0 7,0 h 8 z"
       id="path2" />
    <path
       fill="#7c4dff"
       d="M 14,28 H 7 C 3.134,28 0,24.866 0,21 v 0 c 0,-3.866 3.134,-7 7,-7 h 7 z"
       id="path4" />
    <path
       fill="#66bb6a"
       d="m 7,42 v 0 C 3.134,42 0,38.866 0,35 v 0 c 0,-3.866 3.134,-7 7,-7 h 7 v 7 c 0,3.866 -3.134,7 -7,7 z"
       id="path6" />
    <path
       fill="#ff7043"
       d="M 21,14 H 14 V 0 h 7 c 3.866,0 7,3.134 7,7 v 0 c 0,3.866 -3.134,7 -7,7 z"
       id="path8" />
    <circle
       cx="21"
       cy="21"
       r="7"
       fill="#29b6f6"
       id="circle10" />
  </g>
</svg>
