<?xml version="1.0" encoding="UTF-8" standalone="no"?>
<svg
   xmlns:dc="http://purl.org/dc/elements/1.1/"
   xmlns:cc="http://creativecommons.org/ns#"
   xmlns:rdf="http://www.w3.org/1999/02/22-rdf-syntax-ns#"
   xmlns:svg="http://www.w3.org/2000/svg"
   xmlns="http://www.w3.org/2000/svg"
   xmlns:sodipodi="http://sodipodi.sourceforge.net/DTD/sodipodi-0.dtd"
   xmlns:inkscape="http://www.inkscape.org/namespaces/inkscape"
   viewBox="0 0 41.499355 36"
   width="41.499355"
   height="36"
   version="1.1"
   id="svg81"
   sodipodi:docname="gimp.svg"
   inkscape:version="1.0.2-2 (e86c870879, 2021-01-15)">
  <metadata
     id="metadata87">
    <rdf:RDF>
      <cc:Work
         rdf:about="">
        <dc:format>image/svg+xml</dc:format>
        <dc:type
           rdf:resource="http://purl.org/dc/dcmitype/StillImage" />
      </cc:Work>
    </rdf:RDF>
  </metadata>
  <defs
     id="defs85" />
  <sodipodi:namedview
     pagecolor="#ffffff"
     bordercolor="#666666"
     borderopacity="1"
     objecttolerance="10"
     gridtolerance="10"
     guidetolerance="10"
     inkscape:pageopacity="0"
     inkscape:pageshadow="2"
     inkscape:window-width="1920"
     inkscape:window-height="1001"
     id="namedview83"
     showgrid="false"
     inkscape:zoom="16.701716"
     inkscape:cx="16.795693"
     inkscape:cy="14.318716"
     inkscape:window-x="-9"
     inkscape:window-y="-9"
     inkscape:window-maximized="1"
     inkscape:current-layer="svg81" />
  <radialGradient
     id="LoYOxvrky7jpmBj9eYIMBa"
     cx="22.415001"
     cy="20.181999"
     r="17.612"
     gradientTransform="matrix(0.86641381,0,0,0.8645077,-0.08850737,-3.4798782)"
     gradientUnits="userSpaceOnUse">
    <stop
       offset="0"
       stop-color="#a69d88"
       id="stop2" />
    <stop
       offset="1"
       stop-color="#3e3a2e"
       id="stop4" />
  </radialGradient>
  <path
     fill="url(#LoYOxvrky7jpmBj9eYIMBa)"
     d="m 6.8428031,14.67409 c 0,0 1.7328277,-0.864681 1.7328277,-2.593176 0,-1.728496 0,-8.6450772 0,-8.6450772 0,0 3.4301322,7.0162192 12.1618502,5.6663463 8.196275,-1.266697 11.596949,-4.3164735 13.429414,-8.8928713 0.123031,-0.3084433 0.571833,-0.265989 0.625551,0.061515 0.884609,5.3942924 2.574115,25.0705502 -12.354195,25.6415172 0,0 -8.664138,0.864681 -16.4618617,-6.051034 0.8664138,-1.729362 0.8664138,-5.18722 0.8664138,-5.18722 z"
     id="path7"
     style="fill:url(#LoYOxvrky7jpmBj9eYIMBa);stroke-width:0.866414" />
  <radialGradient
     id="LoYOxvrky7jpmBj9eYIMBb"
     cx="4.4770002"
     cy="18.886"
     r="5.5960002"
     gradientTransform="matrix(0.75525292,-0.49394251,0.48397875,0.74009068,-8.6053551,2.3207622)"
     gradientUnits="userSpaceOnUse">
    <stop
       offset="0"
       stop-color="#7d8587"
       id="stop9" />
    <stop
       offset="1"
       stop-color="#323538"
       id="stop11" />
  </radialGradient>
  <path
     fill="url(#LoYOxvrky7jpmBj9eYIMBb)"
     d="M 8.0341221,13.688978 C 9.7747475,16.350601 9.6638465,19.502614 7.7863278,20.730323 5.908809,21.958031 2.9768647,20.795304 1.2362393,18.134547 -0.504386,15.47379 -0.39348503,12.32091 1.4840337,11.093202 3.3615524,9.8654941 6.2934968,11.028221 8.0341221,13.688978 Z"
     id="path14"
     style="fill:url(#LoYOxvrky7jpmBj9eYIMBb);stroke-width:0.866414" />
  <radialGradient
     id="LoYOxvrky7jpmBj9eYIMBc"
     cx="23.16"
     cy="15.649"
     r="5.7550001"
     gradientTransform="matrix(0.85567028,0,0,0.86641381,0.23379857,-3.4876759)"
     gradientUnits="userSpaceOnUse">
    <stop
       offset="0"
       stop-color="#fafafb"
       id="stop16" />
    <stop
       offset="1"
       stop-color="#c8cdd1"
       id="stop18" />
  </radialGradient>
  <ellipse
     cx="20.769539"
     cy="11.674565"
     fill="url(#LoYOxvrky7jpmBj9eYIMBc)"
     rx="5.1343684"
     ry="4.765276"
     id="ellipse21"
     style="fill:url(#LoYOxvrky7jpmBj9eYIMBc);stroke-width:0.866414" />
  <radialGradient
     id="LoYOxvrky7jpmBj9eYIMBd"
     cx="13.213"
     cy="17.287001"
     r="3.6459999"
     gradientUnits="userSpaceOnUse"
     gradientTransform="matrix(0.86641381,0,0,0.86641381,-0.08850737,-3.4876759)">
    <stop
       offset="0"
       stop-color="#fafafb"
       id="stop23" />
    <stop
       offset="1"
       stop-color="#c8cdd1"
       id="stop25" />
  </radialGradient>
  <ellipse
     cx="11.85674"
     cy="12.540978"
     fill="url(#LoYOxvrky7jpmBj9eYIMBd)"
     rx="3.2811091"
     ry="3.0324483"
     id="ellipse28"
     style="fill:url(#LoYOxvrky7jpmBj9eYIMBd);stroke-width:0.866414" />
  <circle
     cx="22.005045"
     cy="12.540978"
     r="2.1660345"
     fill="#999999"
     id="circle30"
     style="stroke-width:0.866414" />
  <circle
     cx="22.005045"
     cy="12.540978"
     r="1.2996207"
     fill="#323537"
     id="circle32"
     style="stroke-width:0.866414" />
  <circle
     cx="12.513481"
     cy="13.119742"
     r="1.5049608"
     fill="#999999"
     id="circle34"
     style="stroke-width:0.866414" />
  <circle
     cx="12.513481"
     cy="13.119742"
     r="0.71652424"
     fill="#323537"
     id="circle36"
     style="stroke-width:0.866414" />
  <circle
     cx="11.578621"
     cy="12.143296"
     r="0.96171933"
     fill="#ffffff"
     id="circle38"
     style="stroke-width:0.866414" />
  <linearGradient
     id="LoYOxvrky7jpmBj9eYIMBe"
     x1="2.266"
     x2="4.1820002"
     y1="17.558001"
     y2="19.898001"
     gradientUnits="userSpaceOnUse"
     gradientTransform="matrix(0.86641381,0,0,0.86641381,-0.08850737,-3.4876759)">
    <stop
       offset="0"
       stop-color="#caced2"
       id="stop40" />
    <stop
       offset="1"
       stop-color="#8f979e"
       id="stop42" />
  </linearGradient>
  <circle
     cx="2.9811966"
     cy="13.076423"
     r="1.6305908"
     fill="url(#LoYOxvrky7jpmBj9eYIMBe)"
     id="circle45"
     style="fill:url(#LoYOxvrky7jpmBj9eYIMBe);stroke-width:0.866414" />
  <circle
     cx="20.49835"
     cy="11.149518"
     r="1.4425789"
     fill="#ffffff"
     id="circle47"
     style="stroke-width:0.866414" />
  <linearGradient
     id="LoYOxvrky7jpmBj9eYIMBf"
     x1="38.828999"
     x2="36.995998"
     y1="9.3269997"
     y2="16.812"
     gradientUnits="userSpaceOnUse"
     gradientTransform="matrix(0.86641381,0,0,0.86641381,-0.08850737,-3.4876759)">
    <stop
       offset="0"
       stop-color="#77705f"
       id="stop49" />
    <stop
       offset="1"
       stop-color="#4b473a"
       id="stop51" />
  </linearGradient>
  <path
     fill="url(#LoYOxvrky7jpmBj9eYIMBf)"
     d="m 34.466674,0.785477 c 0,0 -0.995509,3.8572743 -2.48834,5.8898811 -1.492831,2.032607 -0.99551,4.3961839 0.497321,4.7280199 1.492831,0.331837 0.788437,-0.663673 0.207073,-0.870746 C 32.102231,10.325559 31.355382,8.7902741 32.517243,7.0903701 33.678238,5.3896 34.259602,2.6110109 34.466674,0.785477 Z"
     id="path54"
     style="fill:url(#LoYOxvrky7jpmBj9eYIMBf);stroke-width:0.866414" />
  <path
     fill="#181612"
     d="m 27.374211,21.192121 c 0,0 0,-1.991019 -2.074195,-2.156504 0,0 0.648078,0.259058 1.039697,0.852552 -2.636497,2.318523 -7.717148,1.387995 -7.717148,1.387995 4.396184,1.20778 7.134051,0.136027 8.020393,-0.317974 0.407214,0.434073 0.731253,0.233931 0.731253,0.233931 z"
     id="path56"
     style="stroke-width:0.866414" />
  <linearGradient
     id="LoYOxvrky7jpmBj9eYIMBg"
     x1="34.596001"
     x2="33.202"
     y1="30.031"
     y2="32.078999"
     gradientUnits="userSpaceOnUse"
     gradientTransform="matrix(0.86641381,0,0,0.86641381,-0.08850737,-3.4876759)">
    <stop
       offset="0"
       stop-color="#c26715"
       id="stop58" />
    <stop
       offset=".508"
       stop-color="#b85515"
       id="stop60" />
    <stop
       offset="1"
       stop-color="#ad3f16"
       id="stop62" />
  </linearGradient>
  <path
     fill="url(#LoYOxvrky7jpmBj9eYIMBg)"
     d="m 26.461877,20.487727 c 1.327346,0.622085 7.134052,4.604123 7.134052,4.604123 0,0 -0.746849,0.870746 -1.368934,1.742358 -1.576007,-0.829158 -6.857666,-5.391693 -6.857666,-5.391693 -0.08318,-0.415879 0.580498,-1.162727 1.092548,-0.954788 z"
     id="path65"
     style="fill:url(#LoYOxvrky7jpmBj9eYIMBg);stroke-width:0.866414" />
  <linearGradient
     id="LoYOxvrky7jpmBj9eYIMBh"
     x1="42.047001"
     x2="40.275002"
     y1="33.728001"
     y2="36.112"
     gradientUnits="userSpaceOnUse"
     gradientTransform="matrix(0.86641381,0,0,0.86641381,-0.08850737,-3.4876759)">
    <stop
       offset="0"
       stop-color="#fafafb"
       id="stop67" />
    <stop
       offset="1"
       stop-color="#c8cdd1"
       id="stop69" />
  </linearGradient>
  <path
     fill="url(#LoYOxvrky7jpmBj9eYIMBh)"
     d="m 37.888143,28.824361 -4.293081,-3.733377 c -0.538909,-0.4566 -1.824667,1.452109 -1.368934,1.742358 l 4.583329,2.94494 z"
     id="path72"
     style="fill:url(#LoYOxvrky7jpmBj9eYIMBh);stroke-width:0.866414" />
  <linearGradient
     id="LoYOxvrky7jpmBj9eYIMBi"
     x1="46.487999"
     x2="43.937"
     y1="40.910999"
     y2="42.683998"
     gradientUnits="userSpaceOnUse"
     gradientTransform="matrix(0.86641381,0,0,0.86641381,-0.08850737,-3.4876759)">
    <stop
       offset="0"
       stop-color="#6d7479"
       id="stop74" />
    <stop
       offset="1"
       stop-color="#323538"
       id="stop76" />
  </linearGradient>
  <path
     fill="url(#LoYOxvrky7jpmBj9eYIMBi)"
     d="m 41.499355,36 c 0,0 -5.401223,-1.548282 -4.918631,-5.931469 0.110901,-1.005906 1.168792,-1.223376 1.168792,-1.223376 0,0 2.580181,-0.601292 2.82191,3.131219 C 40.733446,34.465581 41.499355,36 41.499355,36 Z"
     id="path79"
     style="fill:url(#LoYOxvrky7jpmBj9eYIMBi);stroke-width:0.866414" />
</svg>
