<?xml version="1.0" encoding="UTF-8" standalone="no"?>
<svg
   xmlns:dc="http://purl.org/dc/elements/1.1/"
   xmlns:cc="http://creativecommons.org/ns#"
   xmlns:rdf="http://www.w3.org/1999/02/22-rdf-syntax-ns#"
   xmlns:svg="http://www.w3.org/2000/svg"
   xmlns="http://www.w3.org/2000/svg"
   xmlns:sodipodi="http://sodipodi.sourceforge.net/DTD/sodipodi-0.dtd"
   xmlns:inkscape="http://www.inkscape.org/namespaces/inkscape"
   viewBox="0 0 36 36"
   width="36"
   height="36"
   version="1.1"
   id="svg8"
   sodipodi:docname="illustrator.svg"
   inkscape:version="1.0.2-2 (e86c870879, 2021-01-15)">
  <metadata
     id="metadata14">
    <rdf:RDF>
      <cc:Work
         rdf:about="">
        <dc:format>image/svg+xml</dc:format>
        <dc:type
           rdf:resource="http://purl.org/dc/dcmitype/StillImage" />
      </cc:Work>
    </rdf:RDF>
  </metadata>
  <defs
     id="defs12" />
  <sodipodi:namedview
     pagecolor="#ffffff"
     bordercolor="#666666"
     borderopacity="1"
     objecttolerance="10"
     gridtolerance="10"
     guidetolerance="10"
     inkscape:pageopacity="0"
     inkscape:pageshadow="2"
     inkscape:window-width="1920"
     inkscape:window-height="1001"
     id="namedview10"
     showgrid="false"
     inkscape:zoom="17.076421"
     inkscape:cx="18"
     inkscape:cy="18"
     inkscape:window-x="-9"
     inkscape:window-y="-9"
     inkscape:window-maximized="1"
     inkscape:current-layer="svg8" />
  <path
     fill="#ff5722"
     d="M 0,4 C 0,1.791 1.791,0 4,0 h 28 c 2.209,0 4,1.791 4,4 v 28 c 0,2.209 -1.791,4 -4,4 H 4 C 1.791,36 0,34.209 0,32 Z"
     id="path2" />
  <path
     fill="#1c0802"
     d="M 3,3 V 33 H 33 V 3 Z M 17.691,25 16.929,22.09 H 13.013 L 12.252,25 H 9.215 l 4.443,-14.219 h 2.627 L 20.758,25 Z m 7.159,0 H 22.077 V 14.434 H 24.85 Z M 24.552,12.754 c -0.271,0.28 -0.636,0.42 -1.099,0.42 -0.463,0 -0.828,-0.14 -1.099,-0.42 -0.271,-0.28 -0.405,-0.632 -0.405,-1.055 0,-0.43 0.137,-0.781 0.41,-1.055 0.273,-0.274 0.639,-0.41 1.094,-0.41 0.455,0 0.82,0.137 1.094,0.41 0.274,0.273 0.41,0.625 0.41,1.055 0,0.423 -0.135,0.775 -0.405,1.055 z"
     id="path4" />
  <path
     fill="#1c0802"
     d="m 13.639,19.697 h 2.656 l -1.328,-5.068 z"
     id="path6" />
</svg>
