<?xml version="1.0" encoding="UTF-8" standalone="no"?>
<svg
   xmlns:dc="http://purl.org/dc/elements/1.1/"
   xmlns:cc="http://creativecommons.org/ns#"
   xmlns:rdf="http://www.w3.org/1999/02/22-rdf-syntax-ns#"
   xmlns:svg="http://www.w3.org/2000/svg"
   xmlns="http://www.w3.org/2000/svg"
   xmlns:sodipodi="http://sodipodi.sourceforge.net/DTD/sodipodi-0.dtd"
   xmlns:inkscape="http://www.inkscape.org/namespaces/inkscape"
   viewBox="0 0 36 36"
   width="36"
   height="36"
   version="1.1"
   id="svg10"
   sodipodi:docname="inkscape.svg"
   inkscape:version="1.0.2-2 (e86c870879, 2021-01-15)">
  <metadata
     id="metadata16">
    <rdf:RDF>
      <cc:Work
         rdf:about="">
        <dc:format>image/svg+xml</dc:format>
        <dc:type
           rdf:resource="http://purl.org/dc/dcmitype/StillImage" />
      </cc:Work>
    </rdf:RDF>
  </metadata>
  <defs
     id="defs14" />
  <sodipodi:namedview
     pagecolor="#ffffff"
     bordercolor="#666666"
     borderopacity="1"
     objecttolerance="10"
     gridtolerance="10"
     guidetolerance="10"
     inkscape:pageopacity="0"
     inkscape:pageshadow="2"
     inkscape:window-width="1920"
     inkscape:window-height="1001"
     id="namedview12"
     showgrid="false"
     inkscape:zoom="17.291667"
     inkscape:cx="21.999901"
     inkscape:cy="22.00025"
     inkscape:window-x="-9"
     inkscape:window-y="-9"
     inkscape:window-maximized="1"
     inkscape:current-layer="svg10" />
  <path
     fill="#212121"
     d="M 34.580518,15.491972 20.867733,1.2293332 c -1.701825,-1.63911094 -4.498382,-1.63911094 -6.073389,0 L 1.5610166,14.997702 c -5.0162937,5.095728 3.401196,4.686564 6.3924812,6.617 1.3794601,0.913254 -4.0647442,2.094101 -2.880012,3.29868 1.1544593,1.211944 6.6076642,2.303593 7.7621232,3.477894 1.154459,1.204579 -2.312192,2.486899 -1.150369,3.691477 1.125005,1.204579 3.618834,0.05728 4.106472,2.796227 0.352638,2.027817 4.728293,1.008998 6.782756,-0.71931 1.282096,-1.107198 -2.241828,-1.10638 -1.087368,-2.318323 1.035004,-1.06219 2.02419,-1.534365 2.924194,-1.82569 1.611824,-0.531095 3.452741,-0.412437 4.135108,-2.178389 0.577638,-1.466444 -4.308564,-2.61374 -2.989649,-3.556454 3.148377,-2.25122 14.362423,-3.371511 9.023765,-8.788842 z m -15.1757,9.797841 c -1.739462,0.599016 -9.709404,-3.230759 -7.617304,-3.230759 0.360001,8.18e-4 12.153323,1.689847 7.617304,3.230759 z m 10.595499,4.153833 c -1.511188,1.558096 0.262637,3.19066 1.741098,2.114559 0.395183,-0.297053 -0.03191,-1.743857 -1.741098,-2.114559 z m 1.107823,-1.510634 c 0,0.735677 5.165203,1.155479 4.880475,-0.175122 -0.411548,-2.2414 -4.309382,-2.066278 -4.880475,0.175122 z"
     id="path2"
     style="stroke-width:0.818257" />
  <path
     fill="#212121"
     d="m 6.178854,32.259512 c 1.2084596,1.2725 3.0362853,-0.278231 3.6245604,-2.067915 -1.1757321,-1.869061 -5.5186592,0.119476 -3.6245604,2.067915 z"
     id="path4"
     style="stroke-width:0.818257" />
  <path
     fill="#424242"
     d="m 20.266367,2.9380021 -3.66547,6.2111094 -6.49639,11.0146945 C 8.8363195,19.680993 7.4781322,19.386395 6.2099451,19.157263 5.7190339,19.00178 5.2199409,18.862665 4.7208479,18.731732 3.7881168,18.478051 2.0944734,18.011604 1.6608352,17.610623 c 0.057273,-0.171849 0.278183,-0.638296 1.10455,-1.481174 L 9.0490477,9.5991919 16.003622,2.3651725 c 0.450002,-0.466447 1.088186,-0.7283119 1.808189,-0.7283119 0.720003,0 1.423643,0.2700482 1.930918,0.7528617 z"
     id="path6"
     style="stroke-width:0.818257" />
  <path
     fill="#fafafa"
     d="m 25.420934,8.2898671 c -0.02454,0.081833 -0.06546,0.147299 -0.106364,0.1963987 L 22.819105,6.4322626 22.328194,9.4518928 20.274549,8.3307835 16.928171,10.474803 16.600897,9.1491115 15.823621,5.9658156 14.039978,9.8856067 9.5808681,9.8528737 c -0.278183,0 -0.4500019,-0.098199 -0.5318204,-0.2536817 L 16.003622,2.3651726 c 0.450002,-0.466447 1.088186,-0.7283119 1.808189,-0.7283119 0.720003,0 1.423643,0.2700482 1.930918,0.7528617 l 0.523638,0.5482798 z"
     id="path8"
     style="stroke-width:0.818257" />
</svg>
