<?xml version="1.0" encoding="UTF-8" standalone="no"?>
<svg
   xmlns:dc="http://purl.org/dc/elements/1.1/"
   xmlns:cc="http://creativecommons.org/ns#"
   xmlns:rdf="http://www.w3.org/1999/02/22-rdf-syntax-ns#"
   xmlns:svg="http://www.w3.org/2000/svg"
   xmlns="http://www.w3.org/2000/svg"
   xmlns:sodipodi="http://sodipodi.sourceforge.net/DTD/sodipodi-0.dtd"
   xmlns:inkscape="http://www.inkscape.org/namespaces/inkscape"
   viewBox="0 0 36 36"
   width="36"
   height="36"
   version="1.1"
   id="svg8"
   sodipodi:docname="photoshop.svg"
   inkscape:version="1.0.2-2 (e86c870879, 2021-01-15)">
  <metadata
     id="metadata14">
    <rdf:RDF>
      <cc:Work
         rdf:about="">
        <dc:format>image/svg+xml</dc:format>
        <dc:type
           rdf:resource="http://purl.org/dc/dcmitype/StillImage" />
      </cc:Work>
    </rdf:RDF>
  </metadata>
  <defs
     id="defs12" />
  <sodipodi:namedview
     pagecolor="#ffffff"
     bordercolor="#666666"
     borderopacity="1"
     objecttolerance="10"
     gridtolerance="10"
     guidetolerance="10"
     inkscape:pageopacity="0"
     inkscape:pageshadow="2"
     inkscape:window-width="1920"
     inkscape:window-height="1001"
     id="namedview10"
     showgrid="false"
     inkscape:zoom="17.076421"
     inkscape:cx="18"
     inkscape:cy="18"
     inkscape:window-x="-9"
     inkscape:window-y="-9"
     inkscape:window-maximized="1"
     inkscape:current-layer="svg8" />
  <path
     fill="#03a9f4"
     d="M 0,4 C 0,1.791 1.791,0 4,0 h 28 c 2.209,0 4,1.791 4,4 v 28 c 0,2.209 -1.791,4 -4,4 H 4 C 1.791,36 0,34.209 0,32 Z"
     id="path2" />
  <path
     fill="#020f16"
     d="m 14.016,13.174 h -2.002 v 4.434 h 1.973 c 0.547,0 0.97,-0.179 1.27,-0.537 0.3,-0.358 0.449,-0.879 0.449,-1.563 0,-0.71 -0.153,-1.274 -0.459,-1.694 -0.306,-0.42 -0.717,-0.633 -1.231,-0.64 z"
     id="path4" />
  <path
     fill="#020f16"
     d="M 3,3 V 33 H 33 V 3 Z M 17.365,18.789 C 16.539,19.597 15.393,20 13.928,20 h -1.914 v 5 H 9.143 V 10.781 h 4.844 c 1.406,0 2.528,0.437 3.364,1.309 0.836,0.872 1.255,2.005 1.255,3.398 0,1.393 -0.414,2.493 -1.241,3.301 z m 9.317,5.547 c -0.709,0.573 -1.641,0.859 -2.793,0.859 -0.775,0 -1.459,-0.151 -2.051,-0.454 -0.592,-0.303 -1.057,-0.725 -1.392,-1.265 -0.335,-0.54 -0.503,-1.123 -0.503,-1.748 h 2.627 c 0.014,0.481 0.125,0.843 0.337,1.084 0.212,0.241 0.558,0.361 1.04,0.361 0.742,0 1.113,-0.335 1.113,-1.006 0,-0.234 -0.112,-0.451 -0.337,-0.649 C 24.498,21.32 24,21.052 23.225,20.713 c -1.139,-0.462 -1.922,-0.94 -2.349,-1.436 -0.427,-0.496 -0.64,-1.11 -0.64,-1.846 0,-0.925 0.334,-1.688 1.001,-2.29 0.667,-0.602 1.552,-0.903 2.651,-0.903 1.158,0 2.086,0.3 2.783,0.898 0.697,0.598 1.045,1.403 1.045,2.412 h -2.764 c 0,-0.859 -0.357,-1.289 -1.074,-1.289 -0.293,0 -0.533,0.091 -0.723,0.273 -0.19,0.182 -0.283,0.437 -0.283,0.762 0,0.234 0.104,0.441 0.313,0.62 0.209,0.179 0.699,0.435 1.475,0.767 1.127,0.417 1.922,0.881 2.388,1.392 0.466,0.511 0.698,1.174 0.698,1.987 0,0.945 -0.355,1.703 -1.064,2.276 z"
     id="path6" />
</svg>
