<?xml version="1.0" encoding="UTF-8" standalone="no"?>
<svg
   xmlns:dc="http://purl.org/dc/elements/1.1/"
   xmlns:cc="http://creativecommons.org/ns#"
   xmlns:rdf="http://www.w3.org/1999/02/22-rdf-syntax-ns#"
   xmlns:svg="http://www.w3.org/2000/svg"
   xmlns="http://www.w3.org/2000/svg"
   xmlns:sodipodi="http://sodipodi.sourceforge.net/DTD/sodipodi-0.dtd"
   xmlns:inkscape="http://www.inkscape.org/namespaces/inkscape"
   width="48.027218"
   height="36"
   viewBox="0 0 9.8359742 7.3728"
   version="1.1"
   id="svg4"
   sodipodi:docname="sass.svg"
   inkscape:version="1.0.2-2 (e86c870879, 2021-01-15)">
  <metadata
     id="metadata10">
    <rdf:RDF>
      <cc:Work
         rdf:about="">
        <dc:format>image/svg+xml</dc:format>
        <dc:type
           rdf:resource="http://purl.org/dc/dcmitype/StillImage" />
        <dc:title></dc:title>
      </cc:Work>
    </rdf:RDF>
  </metadata>
  <defs
     id="defs8" />
  <sodipodi:namedview
     pagecolor="#ffffff"
     bordercolor="#666666"
     borderopacity="1"
     objecttolerance="10"
     gridtolerance="10"
     guidetolerance="10"
     inkscape:pageopacity="0"
     inkscape:pageshadow="2"
     inkscape:window-width="1920"
     inkscape:window-height="1001"
     id="namedview6"
     showgrid="false"
     fit-margin-top="0"
     fit-margin-left="0"
     fit-margin-right="0"
     fit-margin-bottom="0"
     inkscape:zoom="0.42756392"
     inkscape:cx="1250.5648"
     inkscape:cy="936.32515"
     inkscape:window-x="-9"
     inkscape:window-y="-9"
     inkscape:window-maximized="1"
     inkscape:current-layer="svg4" />
  <path
     fill="#cf649a"
     d="M 8.467278,4.233669 C 8.1233731,4.2356094 7.8255784,4.3182042 7.575815,4.4411839 7.4835947,4.2586645 7.3913744,4.099181 7.3760236,3.9800823 7.3587323,3.8417519 7.3375985,3.7571974 7.3587323,3.5919885 7.3798469,3.4267413 7.4759097,3.192348 7.4759097,3.1731354 7.4739692,3.1558441 7.4547567,3.0713088 7.2568865,3.0693876 7.0590163,3.0674663 6.8880052,3.1078127 6.8687927,3.1596866 6.8495801,3.2115605 6.811155,3.3306784 6.7861787,3.4536388 6.751596,3.6342369 6.3903998,4.2740153 6.1848254,4.6102352 6.1175814,4.4795898 6.0599437,4.3643144 6.048397,4.2720749 6.0311249,4.1337636 6.0099718,4.0492091 6.0311249,3.8840003 6.0522587,3.718753 6.1483215,3.4843789 6.1483215,3.4651664 6.1464003,3.4478751 6.1271877,3.3633398 5.9293175,3.3614185 5.7314089,3.3594973 5.5604363,3.3998437 5.5412237,3.4517176 5.5220111,3.5035915 5.5008773,3.6265519 5.4586097,3.7456698 5.4182441,3.8647877 4.93793,4.9330063 4.8130483,5.2115885 4.7496468,5.3537614 4.6939496,5.4671156 4.653584,5.5439658 c -0.040346,0.07685 -0.00192,0.00576 -0.00576,0.013449 -0.034583,0.065323 -0.053795,0.1018266 -0.053795,0.1018266 v 0.00194 c -0.026898,0.048031 -0.055716,0.094122 -0.069184,0.094122 -0.00961,0 -0.028819,-0.1287241 0.00384,-0.3054605 0.071085,-0.3708211 0.2439977,-0.9491001 0.2420957,-0.9702339 0,-0.00961 0.032642,-0.1114521 -0.1114521,-0.1633068 -0.1402517,-0.051874 -0.1901852,0.034583 -0.2017319,0.034583 -0.011528,0 -0.021134,0.03074 -0.021134,0.03074 0,0 0.1556218,-0.6512867 -0.2977947,-0.6512867 -0.284346,0 -0.6762823,0.3093223 -0.8703292,0.591747 C 3.1453785,4.3893291 2.8840876,4.5314829 2.6074267,4.6832814 2.5017576,4.7409191 2.392246,4.8023993 2.2884982,4.8581157 L 2.2673835,4.8350222 C 1.7179042,4.249039 0.70155955,3.8340476 0.74382719,3.0463325 0.75919724,2.7600653 0.85910257,2.0050115 2.6958429,1.0904934 4.2001867,0.34120344 5.4048145,0.54677787 5.6142122,1.0040369 5.912007,1.6572641 4.9705913,2.8714981 3.4067078,3.0463325 2.8111183,3.1135765 2.4979343,2.8830257 2.419182,2.7965691 2.336568,2.7062701 2.32504,2.7024271 2.2943003,2.7197191 c -0.049953,0.026898 -0.019212,0.1075904 0,0.1556218 0.04611,0.1210391 0.2382358,0.3362198 0.5648494,0.4438102 0.286248,0.094141 0.9856046,0.1460153 1.8309574,-0.1805983 C 5.6372865,2.7715928 6.3769702,1.7533269 6.1598683,0.9022103 5.9389238,0.03572367 4.501824,-0.24862228 3.1434957,0.23361308 2.3346275,0.52180154 1.4585346,0.9713755 0.82836247,1.5612013 0.07907247,2.2605386 -0.04004543,2.8714981 0.00990724,3.125104 0.18476078,4.0300158 1.431637,4.6198415 1.9311637,5.0559667 1.9061873,5.0693963 1.8831323,5.0828451 1.8619984,5.0943918 1.6122351,5.217333 0.66121316,5.7149577 0.42297737,6.2413627 0.15400147,6.8369522 0.46524501,7.2654116 0.6727407,7.3230493 1.3144404,7.5017261 1.9715101,7.1808763 2.3269425,6.6525308 2.6804345,6.1241853 2.638186,5.4382967 2.4748792,5.1251319 L 2.4690963,5.1136044 2.6650644,4.998329 C 2.7918865,4.9234 2.9167682,4.8542348 3.0262606,4.7946566 2.9647996,4.9618059 2.9205915,5.1596953 2.8975557,5.4478838 c -0.026898,0.3381603 0.1114328,0.7761876 0.2939522,0.9491007 0.080693,0.07491 0.1767556,0.07685 0.2363145,0.07685 0.2113382,0 0.3074011,-0.1748535 0.4130702,-0.3842513 0.1306454,-0.2555271 0.2459208,-0.5514005 0.2459208,-0.5514005 0,0 -0.1440943,0.8011639 0.2497633,0.8011639 0.1440942,0 0.2881885,-0.1863619 0.3535112,-0.2824247 v 0.00192 c 0,0 0.00384,-0.00576 0.011527,-0.019212 a 0.69414995,0.69414995 0 0 0 0.023055,-0.036485 v -0.00384 C 4.7823082,5.8993983 4.9110324,5.6707688 5.103158,5.2922812 5.3509809,4.8042821 5.5892359,4.1933226 5.5892359,4.1933226 c 0,0 0.023055,0.149858 0.094142,0.3957788 0.042248,0.1460347 0.1344687,0.3054798 0.2055552,0.4611015 -0.057638,0.080693 -0.09222,0.1268222 -0.09222,0.1268222 l 0.00192,0.00192 c -0.046091,0.06148 -0.097984,0.1268222 -0.15176,0.1921257 -0.1959682,0.2343933 -0.4303614,0.5014671 -0.4611015,0.5783174 -0.036504,0.09028 -0.028819,0.1575238 0.042268,0.2113382 0.051874,0.038425 0.1440942,0.046091 0.2420783,0.038425 0.1767556,-0.011547 0.299716,-0.055716 0.3611962,-0.082633 C 5.927377,6.0819368 6.0368886,6.0300629 6.1425578,5.9532127 6.3346834,5.8110589 6.45188,5.609327 6.4403525,5.3403511 6.4345887,5.1924143 6.3865573,5.0463988 6.3269984,4.9080684 c 0.017291,-0.024976 0.034602,-0.049972 0.051874,-0.07685 0.3035585,-0.4438294 0.5379518,-0.9318093 0.5379518,-0.9318093 0,0 0.023055,0.149858 0.094142,0.3957788 0.036485,0.1248817 0.1095116,0.2613101 0.1748343,0.395798 -0.284346,0.232472 -0.4630228,0.5014479 -0.524503,0.6782035 -0.1133541,0.3266136 -0.024976,0.4745504 0.142173,0.509133 0.07491,0.01537 0.1825193,-0.019213 0.2631929,-0.053795 0.099905,-0.032662 0.2209441,-0.088397 0.3323962,-0.170992 C 7.5911851,5.5113621 7.7756257,5.3134727 7.7660194,5.0464181 7.7602557,4.9234576 7.7275943,4.8024185 7.6834054,4.6871431 7.9254837,4.5872378 8.2386293,4.5296001 8.6363486,4.5776315 9.4913077,4.6775368 9.6603783,5.2116461 9.6277361,5.4345119 9.5950748,5.6573968 9.4163979,5.780338 9.3568197,5.8187631 c -0.059559,0.036504 -0.078771,0.049972 -0.073008,0.07685 0.00769,0.040366 0.034583,0.038425 0.086457,0.030759 C 9.441355,5.914826 9.8198425,5.7438534 9.8352126,5.3327237 9.8582677,4.8043013 9.3568197,4.2279244 8.467278,4.233669 Z M 1.873526,6.4565626 C 1.5911013,6.7658849 1.1934012,6.8830816 1.0243306,6.7831762 0.84181127,6.6775071 0.91287854,6.2221694 1.2606452,5.8936345 1.4719834,5.6938238 1.7467231,5.5093832 1.9273212,5.3960291 1.9676675,5.3710528 2.0291477,5.3345681 2.1021555,5.29036 2.1136835,5.28269 2.1213685,5.278832 2.1213685,5.278832 2.1348175,5.271152 2.1501875,5.261541 2.1655575,5.251935 2.2942816,5.7207215 2.1713175,6.1318704 1.873526,6.4565626 Z M 3.9388766,5.0521242 C 3.8408926,5.2922812 3.6333969,5.9090046 3.5085152,5.8744219 3.4009056,5.8456031 3.3356021,5.3787378 3.4873622,4.9176362 3.5642124,4.685145 3.7275192,4.4085033 3.823582,4.3008937 3.979223,4.1279806 4.1482744,4.0703429 4.1905612,4.1414294 4.2405139,4.233669 4.0003568,4.9022662 3.9388766,5.0521242 Z m 1.7041545,0.8146127 c -0.042268,0.021153 -0.080693,0.036504 -0.097984,0.024996 -0.013449,-0.00769 0.017272,-0.036504 0.017272,-0.036504 0,0 0.2132595,-0.2286295 0.2977947,-0.3342986 0.048032,-0.061461 0.1056691,-0.1325475 0.1671494,-0.2132595 v 0.023055 C 6.0272824,5.6073675 5.762149,5.7918081 5.6430311,5.8667369 Z m 1.3141202,-0.299716 c -0.03074,-0.023055 -0.026878,-0.094142 0.07685,-0.3170073 0.040366,-0.088378 0.1325667,-0.2363145 0.292031,-0.3765663 0.019213,0.057638 0.030759,0.113335 0.028819,0.1652281 -0.0019,0.3458262 -0.2478228,0.4745503 -0.3977,0.5283455 z"
     id="path2"
     style="stroke-width:0.0192126" />
</svg>
