<?xml version="1.0" encoding="UTF-8" standalone="no"?>
<svg
   xmlns:dc="http://purl.org/dc/elements/1.1/"
   xmlns:cc="http://creativecommons.org/ns#"
   xmlns:rdf="http://www.w3.org/1999/02/22-rdf-syntax-ns#"
   xmlns:svg="http://www.w3.org/2000/svg"
   xmlns="http://www.w3.org/2000/svg"
   xmlns:sodipodi="http://sodipodi.sourceforge.net/DTD/sodipodi-0.dtd"
   xmlns:inkscape="http://www.inkscape.org/namespaces/inkscape"
   width="50"
   height="36"
   version="1.1"
   id="svg11"
   sodipodi:docname="tailwind.svg"
   inkscape:version="1.0.2-2 (e86c870879, 2021-01-15)">
  <metadata
     id="metadata15">
    <rdf:RDF>
      <cc:Work
         rdf:about="">
        <dc:format>image/svg+xml</dc:format>
        <dc:type
           rdf:resource="http://purl.org/dc/dcmitype/StillImage" />
        <dc:title></dc:title>
      </cc:Work>
    </rdf:RDF>
  </metadata>
  <sodipodi:namedview
     pagecolor="#ffffff"
     bordercolor="#666666"
     borderopacity="1"
     objecttolerance="10"
     gridtolerance="10"
     guidetolerance="10"
     inkscape:pageopacity="0"
     inkscape:pageshadow="2"
     inkscape:window-width="1920"
     inkscape:window-height="1001"
     id="namedview13"
     showgrid="false"
     fit-margin-top="0"
     fit-margin-left="0"
     fit-margin-right="0"
     fit-margin-bottom="0"
     inkscape:zoom="12.213873"
     inkscape:cx="17.991968"
     inkscape:cy="29.774563"
     inkscape:window-x="-9"
     inkscape:window-y="-9"
     inkscape:window-maximized="1"
     inkscape:current-layer="svg11"
     inkscape:document-rotation="0" />
  <defs
     id="defs7">
    <linearGradient
       x1="0"
       y1="-21.333"
       y2="85.333"
       id="A"
       x2="64"
       gradientUnits="userSpaceOnUse"
       gradientTransform="matrix(0.78125001,0,0,0.78125001,0,-7)">
      <stop
         stop-color="#2383ae"
         offset="0%"
         id="stop2" />
      <stop
         stop-color="#6dd7b9"
         offset="100%"
         id="stop4" />
    </linearGradient>
  </defs>
  <path
     d="M 12.499999,13 C 14.166406,6.333593 18.333593,3 25,3 35,3 36.25,10.499999 41.25,11.75 44.583593,12.583594 47.5,11.333593 50,8 48.333593,14.666407 44.166406,18 37.5,18 27.5,18 26.25,10.499999 21.25,9.25 17.916406,8.416406 15,9.666407 12.499999,13 Z M 0,28 C 1.6664063,21.333593 5.8335938,18 12.499999,18 22.499999,18 23.75,25.500001 28.75,26.75 32.083594,27.583594 35,26.333593 37.5,23 35.833594,29.666407 31.666407,33 25,33 15,33 13.75,25.500001 8.75,24.25 5.4164063,23.416406 2.5,24.666407 0,28 Z"
     fill="url(#A)"
     fill-rule="evenodd"
     id="path9"
     style="fill:url(#A);stroke-width:0.78125" />
</svg>
